<svg version="1.1" xmlns="http://www.w3.org/2000/svg" viewBox="0 0 638 530" preserveAspectRatio="xMidYMid meet" xmlns:xlink="http://www.w3.org/1999/xlink" xmlns:svgjs="http://svgjs.dev/svgjs">

<path d="M0 0 C58.08 0 116.16 0 176 0 C176 12.21 176 24.42 176 37 C171.05 38.32 166.1 39.64 161 41 C153.043 44.026 147.347 49.056 143.645 56.855 C141.467 62.681 139.894 68.341 139.842 74.587 C139.827 75.92 139.827 75.92 139.812 77.28 C139.806 78.246 139.801 79.211 139.795 80.206 C139.78 81.768 139.78 81.768 139.764 83.362 C139.733 86.727 139.708 90.092 139.684 93.457 C139.665 95.537 139.646 97.617 139.627 99.697 C139.559 107.402 139.499 115.107 139.438 122.812 C139.293 140.034 139.149 157.256 139 175 C185.53 175 232.06 175 280 175 C279.897 158.088 279.794 141.175 279.688 123.75 C279.65 115.77 279.65 115.77 279.612 107.628 C279.575 102.817 279.575 102.817 279.535 98.006 C279.519 95.88 279.509 93.753 279.503 91.627 C279.838 67.541 279.838 67.541 268.184 47.188 C260.684 41.127 252.291 39.065 243 37 C243 24.79 243 12.58 243 0 C301.41 0 359.82 0 420 0 C420 12.21 420 24.42 420 37 C414.72 38.32 409.44 39.64 404 41 C400.917 42.267 398.67 43.22 396 45 C395.389 45.407 394.778 45.815 394.148 46.234 C386.843 51.768 383.594 60.175 382 69 C381.722 72.672 381.721 76.33 381.733 80.011 C381.726 81.643 381.726 81.643 381.719 83.308 C381.706 86.942 381.708 90.577 381.709 94.212 C381.703 96.822 381.697 99.433 381.689 102.043 C381.673 108.393 381.667 114.742 381.666 121.091 C381.665 126.256 381.661 131.421 381.654 136.585 C381.637 151.247 381.628 165.909 381.629 180.571 C381.629 181.361 381.629 182.151 381.629 182.964 C381.63 184.15 381.63 184.15 381.63 185.36 C381.63 198.164 381.611 210.968 381.583 223.772 C381.554 236.938 381.541 250.104 381.542 263.27 C381.543 270.655 381.538 278.039 381.516 285.423 C381.496 292.371 381.496 299.319 381.511 306.267 C381.513 308.811 381.508 311.355 381.496 313.899 C380.908 335.919 380.908 335.919 390.238 355.289 C398.775 363.58 408.691 365.916 420 369 C420 381.21 420 393.42 420 406 C361.59 406 303.18 406 243 406 C243 393.79 243 381.58 243 369 C248.28 367.35 253.56 365.7 259 364 C267.831 359.682 272.279 355.419 276.11 346.382 C280.243 334.029 279.606 321.359 279.609 308.477 C279.623 306.207 279.639 303.938 279.657 301.669 C279.709 293.321 279.728 284.973 279.75 276.625 C279.832 257.939 279.915 239.252 280 220 C233.47 220 186.94 220 139 220 C139.083 238.501 139.165 257.001 139.25 276.062 C139.266 281.878 139.282 287.693 139.298 293.684 C139.331 298.953 139.331 298.953 139.37 304.221 C139.384 306.546 139.391 308.87 139.392 311.194 C138.795 336.337 138.795 336.337 150 358 C155.76 362.445 162.042 365.063 169 367 C171.31 367.66 173.62 368.32 176 369 C176 381.21 176 393.42 176 406 C117.92 406 59.84 406 0 406 C0 393.79 0 381.58 0 369 C2.784 368.134 5.569 367.267 8.438 366.375 C15.317 364.13 21.483 361.841 27 357 C27.568 356.513 28.137 356.025 28.723 355.523 C38.425 345.845 37.517 331.166 37.542 318.519 C37.534 316.056 37.526 313.592 37.518 311.129 C37.523 308.508 37.53 305.887 37.539 303.265 C37.557 296.909 37.553 290.553 37.541 284.197 C37.532 279.028 37.531 273.858 37.535 268.688 C37.536 267.95 37.536 267.211 37.537 266.451 C37.538 264.951 37.54 263.45 37.541 261.95 C37.552 247.912 37.539 233.874 37.518 219.835 C37.5 207.813 37.503 195.791 37.521 183.769 C37.543 169.777 37.551 155.786 37.539 141.795 C37.538 140.301 37.537 138.806 37.535 137.312 C37.535 136.577 37.534 135.842 37.533 135.084 C37.53 129.926 37.536 124.768 37.545 119.61 C37.558 112.656 37.549 105.702 37.526 98.748 C37.52 96.203 37.522 93.657 37.531 91.111 C38.207 69.213 38.207 69.213 29 50 C20.999 42.337 10.495 39.624 0 37 C0 24.79 0 12.58 0 0 Z " fill="#8EDAC1" transform="translate(24,57)"></path>
<path d="M0 0 C1.142 0.013 2.285 0.026 3.461 0.039 C11.644 0.236 18.599 0.923 26.062 4.5 C27.056 4.963 28.05 5.426 29.074 5.902 C43.096 13.245 54.102 25.664 58.938 40.812 C63.12 57.054 61.938 73.615 54.062 88.5 C47.122 99.566 38.152 108.271 26.062 113.5 C24.969 114.036 23.876 114.572 22.75 115.125 C5.686 121.488 -11.244 119.337 -27.586 112.371 C-33.903 109.19 -38.919 104.415 -43.938 99.5 C-44.493 98.981 -45.049 98.461 -45.621 97.926 C-53.18 90.121 -59.193 77.303 -59.938 66.5 C-60.029 65.311 -60.121 64.123 -60.215 62.898 C-61.087 45.84 -55.103 31.165 -43.875 18.375 C-32.1 5.609 -17.218 -0.294 0 0 Z " fill="#8EDAC1" transform="translate(546.9375,349.5)"></path>
</svg>