
<!-- Generator: visioncortex VTracer 0.6.4 -->
<svg version="1.1" xmlns="http://www.w3.org/2000/svg" viewBox="0 0 736 712" preserveAspectRatio="xMidYMid meet">
<path d="M0 0 C0.956 -0.002 1.912 -0.005 2.898 -0.007 C6.074 -0.013 9.251 -0.012 12.428 -0.012 C14.717 -0.015 17.006 -0.018 19.295 -0.022 C25.496 -0.031 31.697 -0.033 37.898 -0.034 C41.778 -0.034 45.659 -0.036 49.54 -0.039 C62.399 -0.048 75.258 -0.052 88.117 -0.052 C89.155 -0.052 89.155 -0.052 90.214 -0.052 C90.906 -0.052 91.599 -0.052 92.313 -0.051 C103.523 -0.051 114.734 -0.061 125.944 -0.075 C137.488 -0.089 149.031 -0.096 160.575 -0.095 C167.042 -0.095 173.51 -0.098 179.978 -0.108 C186.067 -0.118 192.157 -0.118 198.246 -0.111 C200.469 -0.11 202.692 -0.112 204.915 -0.118 C220.998 -0.159 236.52 0.715 252.303 4.071 C253.151 4.248 253.998 4.425 254.872 4.607 C256.525 4.956 258.178 5.309 259.83 5.666 C261.601 6.049 263.375 6.416 265.15 6.778 C302.088 15.016 338.484 36.137 365.367 62.546 C367.115 64.256 368.888 65.936 370.662 67.618 C379.266 75.88 386.681 84.67 393.677 94.326 C394.744 95.795 395.834 97.246 396.932 98.692 C406.22 111.248 413.999 125.726 419.99 140.134 C420.256 140.751 420.522 141.369 420.796 142.005 C431.818 167.735 438.121 195.778 438.158 223.794 C438.162 224.774 438.167 225.753 438.171 226.763 C438.181 229.907 438.181 233.052 438.178 236.196 C438.177 237.81 438.177 237.81 438.177 239.456 C438.158 255.449 437.748 271.226 435.99 287.134 C435.77 289.295 435.55 291.457 435.33 293.618 C430.859 336.06 421.142 377.231 405.99 417.134 C405.709 417.885 405.429 418.635 405.139 419.409 C401.668 428.663 397.477 437.453 392.958 446.23 C392.063 447.992 391.203 449.771 390.346 451.552 C382.761 467.293 373.547 482.216 362.99 496.134 C362.335 497.003 362.335 497.003 361.667 497.89 C355.221 506.401 348.385 514.43 340.99 522.134 C340.188 522.977 340.188 522.977 339.369 523.837 C331.624 531.938 323.587 539.25 314.594 545.94 C313.118 547.039 311.655 548.156 310.193 549.274 C281.919 570.522 247.406 582.971 211.99 583.509 C211.057 583.546 210.124 583.583 209.162 583.622 C202.272 583.709 197.554 582.243 191.99 578.134 C189.834 576.001 189.834 576.001 188.49 574.009 C188.026 573.346 187.562 572.684 187.084 572.001 C185.258 568.883 184.866 566.321 184.87 562.787 C184.868 561.455 184.868 561.455 184.866 560.097 C184.87 559.126 184.873 558.155 184.877 557.154 C184.877 556.13 184.877 555.105 184.876 554.05 C184.877 550.657 184.885 547.265 184.893 543.872 C184.895 541.522 184.896 539.172 184.897 536.822 C184.901 530.633 184.911 524.443 184.922 518.254 C184.932 511.94 184.936 505.626 184.942 499.311 C184.952 486.919 184.969 474.526 184.99 462.134 C183.513 462.138 183.513 462.138 182.006 462.142 C157.956 462.209 133.906 462.258 109.856 462.289 C98.225 462.305 86.594 462.326 74.963 462.36 C64.816 462.39 54.669 462.409 44.522 462.416 C39.158 462.42 33.794 462.429 28.43 462.451 C23.362 462.472 18.295 462.477 13.227 462.473 C11.385 462.474 9.543 462.48 7.701 462.491 C-11.898 462.609 -31.028 460 -50.01 455.134 C-50.703 454.956 -51.397 454.779 -52.112 454.596 C-92.058 444.121 -127.031 422.205 -156.01 393.134 C-157.143 392.053 -157.143 392.053 -158.299 390.95 C-190.623 359.761 -211.033 315.85 -219.01 272.134 C-219.173 271.297 -219.337 270.461 -219.506 269.599 C-224.399 244.082 -223.964 215.592 -219.01 190.134 C-218.849 189.233 -218.688 188.332 -218.522 187.404 C-210.831 144.658 -190.265 105.966 -160.912 74.247 C-159.55 72.734 -158.249 71.167 -156.99 69.567 C-155.228 67.402 -153.511 65.675 -151.385 63.884 C-148.356 61.304 -145.421 58.657 -142.51 55.946 C-104.497 21.908 -51.31 -0.091 0 0 Z M-81.01 67.134 C-82.032 67.675 -83.054 68.217 -84.107 68.774 C-93.017 73.715 -100.999 79.878 -109.01 86.134 C-109.572 86.571 -110.134 87.008 -110.714 87.458 C-116.09 91.658 -120.839 95.737 -125.01 101.134 C-126.676 102.8 -128.343 104.467 -130.01 106.134 C-163.498 141.715 -179.406 190.766 -178.146 239.087 C-176.253 281.413 -159.996 320.2 -133.088 352.626 C-131.676 354.329 -130.29 356.055 -128.928 357.798 C-126.577 360.66 -123.876 362.794 -121.01 365.134 C-119.343 366.8 -117.676 368.467 -116.01 370.134 C-108.901 376.937 -101.133 382.623 -93.01 388.134 C-91.991 388.826 -90.973 389.518 -89.924 390.231 C-57.174 411.405 -18.837 418.474 19.53 418.389 C21.637 418.392 23.745 418.396 25.853 418.4 C30.355 418.408 34.858 418.41 39.36 418.408 C46.484 418.405 53.608 418.42 60.731 418.437 C80.975 418.484 101.219 418.508 121.463 418.515 C132.671 418.518 143.879 418.536 155.087 418.57 C162.166 418.59 169.244 418.592 176.323 418.581 C180.722 418.579 185.121 418.593 189.52 418.611 C191.557 418.617 193.593 418.615 195.63 418.606 C198.414 418.595 201.197 418.609 203.98 418.628 C204.782 418.619 205.584 418.61 206.41 418.601 C213.148 418.692 218.551 420.628 223.303 425.509 C227.482 432.01 228.434 436.579 228.423 444.178 C228.433 445.174 228.443 446.17 228.454 447.196 C228.484 450.474 228.493 453.753 228.502 457.032 C228.519 459.31 228.537 461.589 228.556 463.867 C228.604 469.854 228.634 475.842 228.66 481.829 C228.69 487.942 228.736 494.056 228.781 500.169 C228.867 512.157 228.935 524.145 228.99 536.134 C230.563 536 232.135 535.859 233.707 535.716 C234.582 535.638 235.458 535.561 236.36 535.481 C240.479 534.937 244.19 533.62 248.053 532.134 C248.866 531.825 249.68 531.517 250.518 531.199 C267.805 524.449 283.201 514.866 296.768 502.204 C298.772 500.337 300.828 498.578 302.928 496.821 C329.701 473.255 348.638 438.766 361.99 406.134 C362.268 405.469 362.546 404.805 362.832 404.121 C374.837 375.279 382.581 344.431 387.582 313.64 C387.844 312.031 388.114 310.424 388.395 308.819 C399.362 246.035 398.054 179.571 361.423 125.164 C356.98 118.867 351.991 112.99 346.99 107.134 C346.223 106.224 345.456 105.314 344.666 104.376 C340.453 99.493 335.934 95.262 330.99 91.134 C329.734 90.028 329.734 90.028 328.451 88.899 C315.284 77.51 300.809 68.363 284.99 61.134 C283.831 60.591 282.673 60.048 281.479 59.489 C273.152 55.739 264.69 53.041 255.896 50.657 C254.287 50.215 252.686 49.742 251.088 49.263 C233.123 44.171 213.993 43.684 195.451 43.746 C193.319 43.741 191.187 43.736 189.055 43.73 C183.344 43.716 177.634 43.721 171.923 43.731 C165.896 43.738 159.87 43.731 153.843 43.727 C143.73 43.721 133.617 43.728 123.504 43.743 C111.875 43.759 100.246 43.754 88.617 43.737 C78.565 43.723 68.512 43.722 58.46 43.729 C52.486 43.734 46.511 43.735 40.537 43.725 C34.916 43.716 29.295 43.722 23.674 43.74 C21.633 43.743 19.592 43.742 17.551 43.736 C-17.41 43.631 -50.152 50.478 -81.01 67.134 Z " fill="#000000" transform="translate(271.00965881347656,72.86628723144531)"/>
<path d="M0 0 C5.717 3.368 8.95 8.341 11.562 14.375 C11.923 17.412 11.923 17.412 11.903 20.656 C11.903 21.894 11.902 23.131 11.902 24.406 C11.887 25.693 11.871 26.979 11.855 28.305 C11.852 29.498 11.849 30.691 11.846 31.92 C11.831 36.364 11.789 40.807 11.75 45.25 C11.688 55.191 11.626 65.132 11.562 75.375 C40.603 75.375 69.643 75.375 99.562 75.375 C99.404 55.66 99.404 55.66 99.202 35.945 C99.19 33.464 99.18 30.982 99.172 28.5 C99.151 27.224 99.131 25.948 99.11 24.633 C99.107 16.425 99.789 10.748 105.309 4.352 C105.867 3.906 106.425 3.46 107 3 C107.556 2.539 108.111 2.077 108.684 1.602 C114.64 -2.287 120.653 -2.343 127.562 -1.625 C134.688 0.431 138.507 4.858 142.175 11.135 C143.745 14.801 143.942 17.368 143.95 21.345 C143.958 22.361 143.958 22.361 143.966 23.397 C143.981 25.654 143.974 27.911 143.967 30.167 C143.972 31.791 143.979 33.414 143.987 35.038 C144.005 39.438 144.004 43.839 143.998 48.24 C143.995 51.918 144.001 55.596 144.007 59.274 C144.021 67.953 144.02 76.632 144.009 85.311 C143.997 94.255 144.011 103.2 144.038 112.144 C144.06 119.832 144.067 127.519 144.061 135.207 C144.057 139.795 144.06 144.382 144.077 148.97 C144.093 153.286 144.089 157.601 144.07 161.917 C144.066 163.497 144.069 165.078 144.08 166.658 C144.136 175.844 144.094 183.124 137.816 190.398 C137.258 190.844 136.7 191.29 136.125 191.75 C135.569 192.211 135.014 192.673 134.441 193.148 C128.504 197.025 122.455 197.208 115.562 196.375 C108.623 194.108 104.202 189.588 100.562 183.375 C99.486 180.146 99.442 177.83 99.449 174.435 C99.449 173.197 99.449 171.959 99.449 170.683 C99.454 169.381 99.46 168.079 99.465 166.738 C99.466 165.542 99.467 164.346 99.468 163.114 C99.473 158.638 99.487 154.163 99.5 149.688 C99.521 139.684 99.541 129.681 99.562 119.375 C70.522 119.375 41.482 119.375 11.562 119.375 C11.721 139.09 11.721 139.09 11.923 158.805 C11.935 161.286 11.945 163.768 11.953 166.25 C11.974 167.526 11.994 168.802 12.015 170.117 C12.018 178.325 11.336 184.002 5.816 190.398 C5.258 190.844 4.7 191.29 4.125 191.75 C3.292 192.442 3.292 192.442 2.441 193.148 C-3.496 197.025 -9.545 197.208 -16.438 196.375 C-23.377 194.108 -27.798 189.588 -31.438 183.375 C-32.573 179.969 -32.572 177.359 -32.585 173.766 C-32.588 173.091 -32.592 172.416 -32.596 171.721 C-32.607 169.455 -32.611 167.189 -32.615 164.923 C-32.621 163.3 -32.627 161.677 -32.634 160.054 C-32.655 154.72 -32.666 149.385 -32.676 144.051 C-32.68 142.214 -32.684 140.377 -32.688 138.54 C-32.707 129.908 -32.721 121.276 -32.73 112.645 C-32.74 102.685 -32.766 92.726 -32.806 82.766 C-32.836 75.066 -32.851 67.366 -32.855 59.665 C-32.857 55.067 -32.866 50.47 -32.891 45.872 C-32.914 41.544 -32.918 37.216 -32.908 32.888 C-32.908 31.303 -32.914 29.718 -32.928 28.133 C-33.003 18.927 -32.984 11.643 -26.691 4.352 C-26.133 3.906 -25.575 3.46 -25 3 C-24.444 2.539 -23.889 2.077 -23.316 1.602 C-16.509 -2.843 -7.412 -3.382 0 0 Z " fill="#000000" transform="translate(224.4375,206.625)"/>
<path d="M0 0 C5.644 3.325 9.17 8.325 11.562 14.375 C12.022 18.173 12.027 21.928 12 25.75 C12.03 27.254 12.03 27.254 12.061 28.789 C12.056 36.265 10.751 41.68 5.816 47.398 C5.258 47.844 4.7 48.29 4.125 48.75 C3.569 49.211 3.014 49.673 2.441 50.148 C-3.496 54.025 -9.545 54.208 -16.438 53.375 C-23.377 51.108 -27.798 46.588 -31.438 40.375 C-32.988 35.723 -32.705 31.061 -32.75 26.188 C-32.779 25.171 -32.808 24.155 -32.838 23.107 C-32.902 15.527 -31.697 10.153 -26.691 4.352 C-26.133 3.906 -25.575 3.46 -25 3 C-24.444 2.539 -23.889 2.077 -23.316 1.602 C-16.509 -2.843 -7.412 -3.382 0 0 Z " fill="#000000" transform="translate(433.4375,206.625)"/>
<path d="M0 0 C5.695 3.356 9.011 8.336 11.562 14.375 C11.846 17.028 11.984 19.442 11.967 22.089 C11.973 22.838 11.98 23.587 11.987 24.358 C12.006 26.82 12.002 29.281 11.996 31.742 C12.001 33.463 12.006 35.184 12.012 36.905 C12.021 40.508 12.018 44.111 12.009 47.713 C11.997 52.316 12.017 56.917 12.046 61.519 C12.065 65.073 12.065 68.626 12.059 72.179 C12.059 73.875 12.065 75.571 12.077 77.267 C12.189 95.014 12.189 95.014 5.816 102.398 C5.258 102.844 4.7 103.29 4.125 103.75 C3.292 104.442 3.292 104.442 2.441 105.148 C-3.496 109.025 -9.545 109.208 -16.438 108.375 C-23.377 106.108 -27.798 101.588 -31.438 95.375 C-32.611 91.854 -32.601 88.665 -32.615 85.001 C-32.621 84.253 -32.628 83.504 -32.634 82.733 C-32.654 80.256 -32.666 77.778 -32.676 75.301 C-32.68 74.453 -32.684 73.605 -32.688 72.732 C-32.709 68.242 -32.723 63.753 -32.733 59.263 C-32.744 54.637 -32.778 50.012 -32.818 45.386 C-32.844 41.82 -32.852 38.254 -32.856 34.687 C-32.861 32.983 -32.872 31.279 -32.891 29.574 C-33.073 11.747 -33.073 11.747 -26.691 4.352 C-26.133 3.906 -25.575 3.46 -25 3 C-24.444 2.539 -23.889 2.077 -23.316 1.602 C-16.509 -2.843 -7.412 -3.382 0 0 Z " fill="#000000" transform="translate(532.4375,206.625)"/>
<path d="M0 0 C5.665 3.338 9.103 8.329 11.562 14.375 C11.992 17.622 11.983 20.837 11.967 24.109 C11.973 25.072 11.98 26.036 11.987 27.028 C12.006 30.204 12.002 33.379 11.996 36.555 C12.001 38.769 12.006 40.983 12.012 43.198 C12.021 47.836 12.018 52.474 12.009 57.113 C11.997 63.047 12.017 68.98 12.046 74.914 C12.065 79.486 12.065 84.059 12.059 88.631 C12.059 90.819 12.065 93.006 12.077 95.193 C12.092 98.256 12.081 101.319 12.064 104.382 C12.074 105.279 12.084 106.176 12.094 107.1 C12.014 113.921 10.314 119.187 5.816 124.398 C5.258 124.844 4.7 125.29 4.125 125.75 C3.292 126.442 3.292 126.442 2.441 127.148 C-3.496 131.025 -9.545 131.208 -16.438 130.375 C-23.377 128.108 -27.798 123.588 -31.438 117.375 C-32.343 114.659 -32.568 113.064 -32.585 110.272 C-32.592 109.438 -32.599 108.604 -32.606 107.744 C-32.609 106.833 -32.612 105.921 -32.615 104.982 C-32.621 104.019 -32.628 103.056 -32.634 102.064 C-32.654 98.872 -32.666 95.68 -32.676 92.488 C-32.68 91.398 -32.684 90.307 -32.688 89.184 C-32.709 83.41 -32.723 77.637 -32.733 71.864 C-32.744 65.906 -32.778 59.949 -32.818 53.992 C-32.844 49.406 -32.852 44.821 -32.856 40.235 C-32.861 38.04 -32.872 35.844 -32.891 33.649 C-32.915 30.571 -32.914 27.493 -32.907 24.415 C-32.92 23.514 -32.933 22.612 -32.946 21.683 C-32.89 14.839 -31.204 9.581 -26.691 4.352 C-26.133 3.906 -25.575 3.46 -25 3 C-24.444 2.539 -23.889 2.077 -23.316 1.602 C-16.509 -2.843 -7.412 -3.382 0 0 Z " fill="#000000" transform="translate(433.4375,272.625)"/>
<path d="M0 0 C5.644 3.325 9.17 8.325 11.562 14.375 C12.022 18.173 12.027 21.928 12 25.75 C12.03 27.254 12.03 27.254 12.061 28.789 C12.056 36.265 10.751 41.68 5.816 47.398 C5.258 47.844 4.7 48.29 4.125 48.75 C3.569 49.211 3.014 49.673 2.441 50.148 C-3.496 54.025 -9.545 54.208 -16.438 53.375 C-23.377 51.108 -27.798 46.588 -31.438 40.375 C-32.988 35.723 -32.705 31.061 -32.75 26.188 C-32.779 25.171 -32.808 24.155 -32.838 23.107 C-32.902 15.527 -31.697 10.153 -26.691 4.352 C-26.133 3.906 -25.575 3.46 -25 3 C-24.444 2.539 -23.889 2.077 -23.316 1.602 C-16.509 -2.843 -7.412 -3.382 0 0 Z " fill="#000000" transform="translate(532.4375,349.625)"/>
</svg>