<?xml version="1.0" encoding="utf-8"?>
<!-- Generator: Adobe Illustrator 27.5.0, SVG Export Plug-In . SVG Version: 6.00 Build 0)  -->
<svg version="1.1" xmlns="http://www.w3.org/2000/svg" xmlns:xlink="http://www.w3.org/1999/xlink" x="0px" y="0px"
	 viewBox="0 0 750 500" style="enable-background:new 0 0 750 500;" xml:space="preserve">

<g id="OBJECTS">
	<g>
		<path style="fill-rule:evenodd;clip-rule:evenodd;fill:#EAE5F1;" d="M575.268,420.936H375.681H104.37
			c-29.041,0-52.579-25.62-52.579-55.627c0-30.009,21.402-53.301,48.566-55.47c-0.184-2.677-0.278,23.82-0.278-8.107
			c0-44.643,27.824-99.965,95.321-100.929c11.065-0.155-9.999-0.174,0-0.174c12.653-93.356,96.306-165.115,180.282-165.115
			c83.974,0,141.48,49.524,168.65,119.807C709.484,111.713,773.156,420.936,575.268,420.936z"/>
		<g>
			<path style="fill-rule:evenodd;clip-rule:evenodd;fill:#C8BFDE;" d="M575.268,420.936H375.681H104.37
				c-29.041,0-52.579-25.62-52.579-55.629c0-10.238,2.493-19.695,6.855-27.799h634.65
				C680.765,384.024,643.634,420.936,575.268,420.936z"/>
			<path style="fill-rule:evenodd;clip-rule:evenodd;fill:#FFFFFF;" d="M61.588,332.662h632.916
				c-1.773,7.711-4.213,15.179-7.319,22.307H52.666C54.088,346.686,57.193,339.129,61.588,332.662z"/>
		</g>

		<!-- window -->
		<g>
			<path style="fill-rule:evenodd;clip-rule:evenodd;fill:#C3BADB;" d="M265.388,77.405h115.208c2.746,0,4.992,2.245,4.992,4.992
				v220.623c0,2.746-2.246,4.993-4.992,4.993H183.93c-2.744,0-4.991-2.247-4.991-4.993V202.215c5.204-0.839,10.683-1.327,16.46-1.41
				c11.065-0.156-9.999-0.175,0-0.175C202.14,150.895,229.033,107.296,265.388,77.405z"/>
			<path style="fill-rule:evenodd;clip-rule:evenodd;fill:#FFFFFF;" d="M265.388,77.405h121.377c2.745,0,4.991,2.245,4.991,4.99
				v220.625c0,2.746-2.246,4.993-4.991,4.993H190.1c-2.745,0-4.993-2.247-4.993-4.993V201.404c3.324-0.341,6.751-0.549,10.292-0.6
				c11.065-0.156-9.999-0.175,0-0.175C202.14,150.895,229.033,107.296,265.388,77.405z"/>
			<path style="fill-rule:evenodd;clip-rule:evenodd;fill:#A79CCB;" d="M193.591,200.63v0.013c2.591,0.018,9.017,0.062,1.808,0.162
				c-0.608,0.009-1.206,0.031-1.808,0.049v98.676h189.682V85.889H255.711c-31.404,29.384-54.184,69.529-60.312,114.741H193.591z"/>
			<path style="fill-rule:evenodd;clip-rule:evenodd;fill:#9085BE;" d="M193.591,216.207v83.322h189.682v-67.561l-3.261-0.032
				l-0.051-26.996c-0.003-0.486-0.418-0.882-0.928-0.887l-2.374-0.079c-0.259-0.001-0.484,0.084-0.668,0.258
				c-0.185,0.175-0.277,0.389-0.277,0.635l-0.009,6.997l-5.875,0.01l-0.026-30.305c0-0.052-0.003-0.095-0.012-0.146
				c-0.081-0.472-0.208-0.925-0.644-1.218c-0.15-0.099-0.302-0.15-0.452-0.205l-0.443-3.592c-0.054-0.426-0.403-0.75-0.851-0.786
				l-1.496-0.126l-0.105-9.067c-0.003-0.271-0.121-0.503-0.34-0.677c-0.353-0.278-0.692-0.485-1.142-0.59
				c-0.046-0.011-0.088-0.021-0.131-0.029l-0.064-7.117c-0.004-0.491-0.427-0.89-0.943-0.887l-7.419,0.047
				c-0.492,0.004-0.898,0.369-0.929,0.838c-0.085,1.261-0.057,2.516-0.046,3.776c-0.159-0.268-0.457-0.446-0.801-0.451l-6.918-0.11
				c-0.489-0.008-0.898,0.338-0.95,0.801c-0.055,0.506-0.048,1.042-0.051,1.554c-0.001,0.345,0.015,1.227-0.09,1.536
				c-0.018,0.047-0.046,0.129-0.075,0.191c-0.021,0.007-0.039,0.016-0.058,0.025c-0.473,0.221-0.655,0.631-0.729,1.099
				c-0.092,0.59-0.075,1.291-0.066,1.887c0.021,1.829,0.088,3.66,0.104,5.488c0.001,0.267,0.014,1.298-0.083,1.685
				c-0.12,0.007-0.277,0.004-0.355,0.002c-0.4-0.008-0.792-0.021-1.193-0.016c-0.509,0.013-0.918,0.411-0.918,0.898l0.011,3.572
				c-0.055,0.01-0.114,0.017-0.172,0.022c-0.359,0.042-0.639,0.058-0.94,0.302c-0.345,0.28-0.42,0.655-0.431,1.065
				c-0.01,0.389,0.006,0.783,0.006,1.173l-0.002,30.924l-6.964-0.007l-0.074-50.749c-0.001-0.491-0.422-0.892-0.939-0.892h-0.842
				l-0.046-3.646c-0.006-0.479-0.405-0.867-0.906-0.884l-1.689-0.053v-17.403c0-0.48-0.399-0.877-0.902-0.894l-1.705-0.061
				l-0.008-6.443c-0.001-0.306-0.148-0.567-0.413-0.738c-0.642-0.417-0.883-0.493-1.245-0.493l-0.043-6.952
				c-0.003-0.491-0.422-0.89-0.938-0.89h-13.876c-0.262,0-0.488,0.09-0.67,0.27c-0.184,0.178-0.274,0.394-0.267,0.643
				c0.036,1.807,0.108,3.613,0.143,5.421c0.003,0.255,0.029,1.108-0.026,1.557c-0.018,0-0.036-0.002-0.05-0.004
				c-0.243-0.011-0.486-0.024-0.732-0.021c-0.513,0.001-0.931,0.398-0.933,0.891l-0.027,6.691l-1.625,0.07
				c-0.5,0.02-0.894,0.411-0.896,0.888l-0.085,17.417l-1.56,0.047c-0.493,0.015-0.886,0.39-0.905,0.857
				c-0.039,0.941-0.056,1.878-0.066,2.819c-0.003,0.17,0.006,0.607-0.029,0.838c-0.06,0.032-0.128,0.064-0.19,0.092l-1.016,0.329
				c-0.387,0.124-0.637,0.453-0.637,0.846l-0.025,35.631v3.423c-0.079-0.417-0.461-0.733-0.924-0.733h-2.024
				c-0.518,0-0.939,0.402-0.939,0.895v1.623h-3.42v-6.346c0-0.248-0.09-0.46-0.274-0.633c-0.183-0.174-0.406-0.262-0.665-0.262
				l-4.271,0.007l-0.043-18.585c-0.002-0.491-0.418-0.892-0.933-0.893l-4.177-0.021c-0.258-0.002-0.483,0.085-0.666,0.259
				c-0.185,0.175-0.278,0.386-0.278,0.636v3.467h-4.7v-7.553c0-0.493-0.421-0.895-0.938-0.895H265.07
				c-0.509,0-0.926,0.389-0.938,0.871l-0.084,3.207l-10.882,0.002l-0.023-2.155c-0.005-0.484-0.415-0.876-0.92-0.884l-3.243-0.047
				c-0.26-0.004-0.487,0.081-0.674,0.254c-0.184,0.177-0.278,0.391-0.278,0.639v7.113h-1.434v-2.995v-0.089
				c0-0.439-0.377-0.8-0.839-0.8l0,0h-1.036c-0.461,0-0.839,0.361-0.839,0.8v11.795c0,0.441,0.378,0.801,0.839,0.801h1.036v8.867
				h-7.327v-32.332c0-0.555-0.206-1.032-0.62-1.423c-0.413-0.393-0.915-0.587-1.498-0.584l-4.853,0.052
				c-1.156,0.005-2.093,0.903-2.096,2.004v3.37h-0.002v11.606h-10.555v-7.792c0-0.553-0.209-1.03-0.62-1.42
				c-0.414-0.391-0.916-0.586-1.499-0.584l-9.378,0.052c-1.155,0.005-2.091,0.902-2.093,2.002l-0.099,39.704l-9.587-0.019
				c-0.582,0-1.082,0.196-1.492,0.587C193.842,215.788,193.694,215.987,193.591,216.207z"/>
			<rect x="189.227" y="230.895" style="fill-rule:evenodd;clip-rule:evenodd;fill:#FFFFFF;" width="198.412" height="8.483"/>
			<path style="fill-rule:evenodd;clip-rule:evenodd;fill:#FFFFFF;" d="M248.136,93.377h139.503v2.619H245.661
				C246.478,95.115,247.303,94.242,248.136,93.377z"/>
			<path style="fill-rule:evenodd;clip-rule:evenodd;fill:#FFFFFF;" d="M215.306,138.784v56.456
				c1.068,0.494,1.809,1.577,1.809,2.831c0,1.724-1.397,3.119-3.119,3.119c-1.724,0-3.119-1.395-3.119-3.119
				c0-1.254,0.741-2.335,1.809-2.831v-51.273C213.536,142.226,214.406,140.496,215.306,138.784z"/>
			<path style="fill-rule:evenodd;clip-rule:evenodd;fill:#FFFFFF;" d="M235.186,108.224h152.453v2.62H233.144
				C233.816,109.963,234.499,109.094,235.186,108.224z"/>
			<path style="fill-rule:evenodd;clip-rule:evenodd;fill:#FFFFFF;" d="M224.529,123.073h163.109v2.619H222.854
				C223.405,124.813,223.964,123.941,224.529,123.073z"/>
			<path style="fill-rule:evenodd;clip-rule:evenodd;fill:#FFFFFF;" d="M215.77,137.92h171.869v2.62H214.402
				C214.852,139.663,215.308,138.79,215.77,137.92z"/>
			<path style="fill-rule:evenodd;clip-rule:evenodd;fill:#FFFFFF;" d="M208.667,152.768h178.972v2.62H207.565
				C207.924,154.512,208.294,153.639,208.667,152.768z"/>
			<path style="fill-rule:evenodd;clip-rule:evenodd;fill:#FFFFFF;" d="M203.048,167.615h184.59v2.619H202.202
				C202.477,169.358,202.761,168.486,203.048,167.615z"/>
		</g>

		<!-- table -->
		<g>
			<path style="fill-rule:evenodd;clip-rule:evenodd;fill:#050A26;" d="M97.489,442.379h555.02c4.277,0,7.774,3.497,7.774,7.774
				v6.558c0,4.277-3.497,7.775-7.774,7.775H97.489c-4.277,0-7.774-3.497-7.774-7.775v-6.558
				C89.715,445.876,93.212,442.379,97.489,442.379z"/>
			<path style="fill-rule:evenodd;clip-rule:evenodd;fill:#2D267A;" d="M87.974,419.493h574.054c6.562,0,11.932,5.372,11.932,11.936
				v10.068c0,6.565-5.37,11.935-11.932,11.935H87.974c-6.562,0-11.934-5.37-11.934-11.935v-10.068
				C76.04,424.865,81.412,419.493,87.974,419.493z"/>
			<path style="fill-rule:evenodd;clip-rule:evenodd;fill:#3A2689;" d="M87.974,419.493h572.512c0.058,0.48,0.091,0.966,0.091,1.462
				v10.068c0,6.564-5.372,11.936-11.934,11.936H76.131c-0.06-0.482-0.091-0.966-0.091-1.462v-10.068
				C76.04,424.865,81.412,419.493,87.974,419.493z"/>
			<path style="fill-rule:evenodd;clip-rule:evenodd;fill:#4D499B;" d="M111.747,419.493h44.608v33.939h-44.608V419.493
				L111.747,419.493z M599.833,419.493h40.608v33.939h-40.608V419.493L599.833,419.493z M492.822,419.493h81.218v33.939h-81.218
				V419.493L492.822,419.493z M368.858,419.493h81.218v33.939h-81.218V419.493L368.858,419.493z M238.605,419.493h22.304v33.939
				h-22.304V419.493L238.605,419.493z M179.831,419.493h44.608v33.939h-44.608V419.493z"/>
			<path style="fill-rule:evenodd;clip-rule:evenodd;fill:#54519F;" d="M111.747,419.493h44.608v23.466h-44.608V419.493
				L111.747,419.493z M640.441,442.959h-40.608v-23.466h40.608V442.959L640.441,442.959z M574.04,442.959h-81.218v-23.466h81.218
				V442.959L574.04,442.959z M450.076,442.959h-81.218v-23.466h81.218V442.959L450.076,442.959z M260.91,442.959h-22.304v-23.466
				h22.304V442.959L260.91,442.959z M224.439,442.959h-44.608v-23.466h44.608V442.959z"/>
			<path style="fill-rule:evenodd;clip-rule:evenodd;fill:#54519F;" d="M607.63,419.493h16.193v33.939H607.63V419.493
				L607.63,419.493z M185.939,419.493h15.518v33.939h-15.518V419.493L185.939,419.493z M118.744,419.493h21.92v33.939h-21.92
				V419.493L118.744,419.493z M378.169,419.493h42.379v33.939h-42.379V419.493L378.169,419.493z M521.321,419.493h42.38v33.939
				h-42.38V419.493z"/>
			<path style="fill-rule:evenodd;clip-rule:evenodd;fill:#716AAE;" d="M607.63,419.493h16.193v23.466H607.63V419.493
				L607.63,419.493z M563.701,442.959h-42.38v-23.466h42.38V442.959L563.701,442.959z M420.548,442.959h-42.379v-23.466h42.379
				V442.959L420.548,442.959z M201.457,442.959h-15.518v-23.466h15.518V442.959L201.457,442.959z M140.665,442.959h-21.92v-23.466
				h21.92V442.959z"/>
		</g>
	
		<!-- bubble -->
		<g transform="translate(-150,0)">
			<path style="fill-rule:evenodd;clip-rule:evenodd;fill:#E74D91;" d="M663.451,126.718h-64.683c-4.698,0-8.542,3.843-8.542,8.543
				v35.228v2.605v22.426c0,0.393,0.226,0.729,0.589,0.881c0.364,0.15,0.76,0.072,1.039-0.208l14.557-14.556h57.04
				c4.698,0,8.542-3.843,8.542-8.543v-37.832C671.993,130.561,668.149,126.718,663.451,126.718z"/>
			<g>
				<g>
					<path style="fill-rule:evenodd;clip-rule:evenodd;fill:#FFFFFF;" d="M615.802,168.249c8.479,0,15.393-6.914,15.393-15.393
						c0-8.477-6.914-15.393-15.393-15.393c-8.478,0-15.392,6.915-15.392,15.393C600.41,161.335,607.324,168.249,615.802,168.249z"/>
					<path style="fill-rule:evenodd;clip-rule:evenodd;fill:#A79CCB;" d="M623.763,162.947c-2.188,1.73-4.953,2.763-7.961,2.763
						c-3.007,0-5.772-1.033-7.96-2.763c0.138-4.262,3.667-7.705,7.96-7.705l0,0C620.096,155.242,623.625,158.686,623.763,162.947
						L623.763,162.947z M615.802,141.904c3.159,0,5.719,2.561,5.719,5.719c0,3.159-2.56,5.72-5.719,5.72
						c-3.158,0-5.719-2.561-5.719-5.72C610.083,144.465,612.644,141.904,615.802,141.904z"/>
				</g>
				<g>
					<path style="fill-rule:evenodd;clip-rule:evenodd;fill:#FFFFFF;" d="M640.001,144.098h23.801c0.879,0,1.599,0.718,1.599,1.599
						l0,0c0,0.879-0.718,1.597-1.599,1.597h-23.801c-0.879,0-1.598-0.718-1.598-1.597l0,0
						C638.403,144.815,639.122,144.098,640.001,144.098z"/>
					<path style="fill-rule:evenodd;clip-rule:evenodd;fill:#FFFFFF;" d="M640.001,151.129h16.781c0.879,0,1.597,0.718,1.597,1.598
						l0,0c0,0.88-0.718,1.598-1.597,1.598h-16.781c-0.879,0-1.598-0.718-1.598-1.598l0,0
						C638.403,151.847,639.122,151.129,640.001,151.129z"/>
					<path style="fill-rule:evenodd;clip-rule:evenodd;fill:#FFFFFF;" d="M662.481,151.129h2.451c0.881,0,1.597,0.718,1.597,1.598
						l0,0c0,0.88-0.716,1.598-1.597,1.598h-2.451c-0.881,0-1.599-0.718-1.599-1.598l0,0
						C660.883,151.847,661.601,151.129,662.481,151.129z"/>
					<path style="fill-rule:evenodd;clip-rule:evenodd;fill:#FFFFFF;" d="M640.001,158.42h12.871c0.881,0,1.599,0.717,1.599,1.597
						l0,0c0,0.881-0.718,1.599-1.599,1.599h-12.871c-0.879,0-1.598-0.718-1.598-1.599l0,0
						C638.403,159.137,639.122,158.42,640.001,158.42z"/>
				</g>
			</g>
		</g>

		<!-- gear -->
		<path style="fill-rule:evenodd;clip-rule:evenodd;fill:#BFB4D8;" d="M580.146,74.195c-1.341-1.339-2.945-2.422-4.733-3.161
			c-1.719-0.713-3.6-1.105-5.567-1.105c-1.969,0-3.85,0.393-5.567,1.105c-1.786,0.739-3.393,1.822-4.731,3.161
			c-1.34,1.339-2.421,2.945-3.162,4.732c-0.71,1.719-1.104,3.6-1.104,5.567c0,1.969,0.394,3.85,1.104,5.567
			c0.741,1.787,1.822,3.393,3.162,4.732c1.339,1.339,2.943,2.42,4.729,3.161c1.718,0.712,3.599,1.104,5.569,1.104
			c1.968,0,3.851-0.393,5.567-1.104c1.788-0.739,3.393-1.822,4.733-3.161c1.339-1.34,2.421-2.945,3.16-4.732
			c0.712-1.718,1.105-3.599,1.105-5.567c0-1.968-0.393-3.849-1.105-5.567C582.566,77.141,581.484,75.534,580.146,74.195
			L580.146,74.195z M574.902,72.278c1.612,0.667,3.067,1.649,4.288,2.872c1.221,1.221,2.203,2.676,2.872,4.288
			c0.644,1.555,0.998,3.262,0.998,5.056c0,1.794-0.354,3.503-0.998,5.058c-0.669,1.611-1.651,3.067-2.872,4.287
			c-1.222,1.222-2.676,2.205-4.29,2.872c-1.554,0.645-3.262,1-5.056,1c-1.792,0-3.499-0.355-5.054-1
			c-1.614-0.667-3.071-1.65-4.291-2.872c-1.222-1.22-2.205-2.676-2.872-4.289c-0.643-1.553-1-3.262-1-5.056
			c0-1.794,0.357-3.501,1-5.056c0.667-1.612,1.65-3.067,2.872-4.288c1.22-1.223,2.677-2.205,4.289-2.872
			c1.553-0.645,3.262-1,5.056-1C571.639,71.278,573.347,71.634,574.902,72.278L574.902,72.278z M576.513,61.56
			c0.911,0.263,1.807,0.583,2.684,0.957c0.889,0.379,1.751,0.81,2.578,1.287c0.841,0.486,1.652,1.025,2.429,1.609
			c0.78,0.59,1.522,1.222,2.218,1.894c0.248,0.238,0.556,0.378,0.872,0.416c0.323,0.04,0.659-0.026,0.95-0.195
			c2.139-1.235,4.388-2.457,6.482-3.743c0.102-0.053,0.209-0.085,0.314-0.097c0.121-0.013,0.242-0.004,0.358,0.026
			c0.119,0.032,0.231,0.087,0.327,0.16c0.093,0.071,0.175,0.162,0.237,0.27c1.559,2.359,3.123,5.407,4.566,7.909
			c0.063,0.107,0.101,0.222,0.116,0.335c0.013,0.121,0.004,0.247-0.028,0.37c-0.032,0.117-0.086,0.229-0.159,0.325
			c-0.072,0.094-0.161,0.176-0.27,0.237c-1.924,1.271-4.404,2.546-6.442,3.723c-0.299,0.172-0.519,0.43-0.644,0.722
			c-0.044,0.102-0.076,0.21-0.097,0.318l-0.133,0.044l0.149,0.602c0.118,0.473,0.22,0.945,0.306,1.415
			c0.085,0.457,0.157,0.938,0.218,1.438c0.059,0.486,0.104,0.972,0.132,1.448c0.029,0.467,0.044,0.955,0.044,1.465
			c0,0.51-0.015,0.997-0.044,1.463c-0.028,0.479-0.073,0.962-0.132,1.451c-0.06,0.498-0.133,0.977-0.218,1.436
			c-0.086,0.472-0.189,0.945-0.306,1.417c-0.087,0.351-0.043,0.702,0.097,1.006c0.139,0.303,0.379,0.557,0.69,0.714l5.706,3.296
			l-0.002,0.002l0.676,0.391c0.108,0.063,0.197,0.144,0.27,0.236c0.073,0.096,0.127,0.209,0.159,0.328
			c0.032,0.121,0.041,0.248,0.028,0.367c-0.016,0.113-0.054,0.229-0.116,0.335l-4.224,7.32l-0.002-0.001l-0.341,0.592
			c-0.063,0.105-0.145,0.196-0.237,0.268c-0.097,0.073-0.208,0.128-0.327,0.159c-0.121,0.032-0.246,0.042-0.366,0.026
			c-0.113-0.014-0.228-0.052-0.335-0.112c-2.044-1.285-4.35-2.511-6.458-3.728c-0.301-0.172-0.63-0.231-0.943-0.192
			c-0.323,0.037-0.63,0.18-0.873,0.41l-0.002,0.003c-0.696,0.673-1.44,1.307-2.22,1.896c-0.774,0.583-1.587,1.121-2.427,1.607
			c-0.833,0.482-1.701,0.914-2.597,1.295c-0.879,0.374-1.79,0.698-2.731,0.968c-0.332,0.095-0.607,0.292-0.8,0.547
			c-0.195,0.26-0.307,0.584-0.307,0.922l-0.004,7.445c0,0.125-0.024,0.244-0.068,0.351c-0.047,0.11-0.117,0.213-0.204,0.3
			c-0.084,0.087-0.188,0.157-0.3,0.203c-0.105,0.045-0.226,0.069-0.351,0.069h-9.136c-0.127,0-0.244-0.024-0.35-0.069
			c-0.113-0.047-0.216-0.116-0.301-0.201c-0.087-0.089-0.157-0.191-0.203-0.302c-0.045-0.106-0.068-0.226-0.068-0.351v-7.446
			c0-0.354-0.125-0.682-0.331-0.944c-0.21-0.266-0.508-0.462-0.845-0.543c-0.911-0.261-1.808-0.582-2.685-0.954
			c-0.888-0.379-1.75-0.811-2.578-1.289c-0.841-0.486-1.651-1.024-2.428-1.609c-0.781-0.587-1.521-1.222-2.221-1.894
			c-0.258-0.249-0.583-0.388-0.917-0.418c-0.339-0.031-0.688,0.052-0.979,0.245l-6.375,3.68c-0.105,0.062-0.221,0.099-0.337,0.113
			c-0.121,0.016-0.246,0.005-0.367-0.027c-0.119-0.031-0.232-0.086-0.328-0.159c-0.093-0.072-0.174-0.161-0.236-0.268
			c-1.516-2.641-3.052-5.271-4.569-7.911c-0.061-0.105-0.099-0.222-0.113-0.337c-0.016-0.119-0.004-0.244,0.028-0.367
			c0.03-0.119,0.085-0.231,0.159-0.328c0.068-0.095,0.157-0.174,0.263-0.234l6.448-3.724c0.3-0.171,0.518-0.428,0.643-0.721
			c0.034-0.079,0.063-0.162,0.081-0.246l0.169-0.033l-0.169-0.684c-0.117-0.473-0.22-0.945-0.307-1.415
			c-0.083-0.46-0.157-0.938-0.218-1.438c-0.059-0.487-0.105-0.973-0.133-1.45c-0.028-0.467-0.041-0.954-0.041-1.464
			c0-0.508,0.013-0.997,0.041-1.463c0.028-0.478,0.074-0.962,0.133-1.448c0.063-0.506,0.135-0.987,0.218-1.441
			c0.087-0.47,0.19-0.941,0.307-1.413c0.086-0.353,0.044-0.705-0.099-1.008c-0.14-0.302-0.379-0.556-0.685-0.713l-6.386-3.688
			c-0.104-0.059-0.192-0.141-0.265-0.235c-0.074-0.094-0.129-0.206-0.159-0.327c-0.032-0.123-0.044-0.247-0.028-0.368
			c0.015-0.115,0.053-0.229,0.113-0.337c1.56-2.318,3.122-5.416,4.569-7.909c0.063-0.107,0.144-0.198,0.236-0.27
			c0.097-0.073,0.209-0.128,0.328-0.16c0.121-0.032,0.246-0.041,0.365-0.026c0.114,0.014,0.227,0.052,0.337,0.114l6.452,3.725
			c0.306,0.177,0.647,0.237,0.968,0.192c0.324-0.045,0.633-0.193,0.874-0.43c0.7-0.676,1.438-1.306,2.208-1.885
			c0.766-0.577,1.574-1.113,2.419-1.602c0.834-0.48,1.699-0.914,2.596-1.294c0.881-0.374,1.792-0.699,2.731-0.968
			c0.331-0.095,0.606-0.292,0.799-0.548c0.197-0.26,0.31-0.583,0.31-0.921l0.003-7.446c0-0.125,0.023-0.243,0.068-0.351
			c0.046-0.109,0.116-0.212,0.203-0.3c0.085-0.086,0.188-0.156,0.301-0.204c0.106-0.043,0.224-0.067,0.35-0.067h9.136
			c0.125,0,0.245,0.024,0.351,0.067c0.112,0.048,0.216,0.118,0.302,0.203c0.166,0.17,0.271,0.399,0.271,0.651v7.446
			c0,0.356,0.123,0.685,0.328,0.945C575.878,61.285,576.175,61.48,576.513,61.56L576.513,61.56z M579.724,61.278
			c0.94,0.398,1.849,0.854,2.726,1.361c0.892,0.516,1.75,1.084,2.564,1.7c0.818,0.615,1.601,1.284,2.342,1.998
			c0.028,0.026,0.063,0.043,0.102,0.046c0.038,0.005,0.078-0.001,0.11-0.021c2.171-1.253,4.344-2.499,6.509-3.759
			c0.258-0.14,0.534-0.224,0.814-0.256c0.288-0.032,0.579-0.01,0.857,0.065c0.284,0.075,0.557,0.208,0.795,0.391
			c0.231,0.177,0.433,0.399,0.584,0.665c1.572,2.546,3.064,5.304,4.568,7.91c0.154,0.263,0.246,0.55,0.282,0.841
			c0.038,0.299,0.02,0.603-0.059,0.886c-0.075,0.285-0.208,0.556-0.392,0.796c-0.175,0.231-0.398,0.432-0.663,0.584
			c-2.074,1.28-4.327,2.497-6.448,3.722c-0.034,0.021-0.059,0.052-0.074,0.086c-0.015,0.035-0.018,0.075-0.009,0.113l0.148,0.6
			l-0.01,0.004c0.066,0.291,0.125,0.589,0.182,0.89c0.095,0.518,0.173,1.025,0.233,1.521c0.059,0.494,0.106,1.004,0.139,1.528
			c0.03,0.527,0.047,1.042,0.047,1.544c0,0.502-0.017,1.017-0.047,1.542c-0.032,0.524-0.08,1.036-0.139,1.529
			c-0.061,0.498-0.14,1.006-0.233,1.521c-0.094,0.514-0.202,1.013-0.321,1.497c-0.01,0.039-0.006,0.081,0.011,0.117
			c0.02,0.039,0.048,0.07,0.08,0.086c2.369,1.267,4.775,2.754,7.118,4.107l-0.083,0.104l0.072,0.09
			c0.182,0.24,0.315,0.511,0.39,0.797c0.078,0.282,0.097,0.585,0.059,0.885c-0.036,0.29-0.128,0.577-0.282,0.841l-4.909,8.501
			l-0.091-0.054c-0.05,0.045-0.099,0.087-0.152,0.126c-0.238,0.184-0.511,0.316-0.795,0.393c-0.284,0.075-0.584,0.097-0.885,0.059
			c-0.282-0.036-0.559-0.125-0.818-0.27c-2.146-1.139-4.357-2.516-6.479-3.741c-0.032-0.017-0.07-0.022-0.108-0.019
			c-0.039,0.006-0.077,0.022-0.105,0.049c-0.739,0.714-1.521,1.381-2.338,1.997c-0.816,0.613-1.673,1.182-2.564,1.697
			c-0.883,0.511-1.798,0.968-2.743,1.37c-0.94,0.399-1.903,0.742-2.891,1.024c-0.04,0.011-0.072,0.035-0.093,0.064
			c-0.026,0.032-0.04,0.071-0.038,0.108v7.445c0,0.305-0.061,0.598-0.174,0.867c-0.116,0.279-0.284,0.529-0.495,0.737
			c-0.21,0.21-0.46,0.378-0.736,0.493c-0.268,0.113-0.56,0.174-0.866,0.174h-9.136c-0.305,0-0.599-0.06-0.867-0.174
			c-0.276-0.115-0.526-0.284-0.737-0.493c-0.208-0.208-0.377-0.458-0.494-0.737c-0.112-0.27-0.175-0.563-0.175-0.867v-7.446
			c0-0.043-0.013-0.083-0.035-0.111c-0.023-0.029-0.06-0.054-0.101-0.063l-0.028-0.011c-0.993-0.286-1.951-0.628-2.872-1.02
			c-0.94-0.399-1.849-0.854-2.726-1.362c-0.894-0.516-1.751-1.084-2.565-1.697c-0.818-0.617-1.601-1.286-2.341-2
			c-0.03-0.03-0.068-0.047-0.106-0.05c-0.039-0.004-0.079,0.007-0.115,0.029l-6.448,3.723c-0.265,0.152-0.551,0.245-0.837,0.281
			c-0.3,0.039-0.601,0.017-0.885-0.059c-0.284-0.076-0.557-0.209-0.798-0.393c-0.226-0.17-0.42-0.389-0.571-0.644
			c-1.694-2.726-3.295-5.709-4.912-8.506l0.087-0.051c-0.015-0.072-0.028-0.145-0.038-0.216c-0.038-0.3-0.017-0.601,0.059-0.883
			c0.076-0.286,0.209-0.559,0.394-0.797c0.174-0.231,0.398-0.432,0.661-0.584l6.45-3.723c0.032-0.019,0.059-0.049,0.073-0.085
			c0.016-0.036,0.019-0.078,0.01-0.115l-0.169-0.683l0.012-0.002c-0.058-0.265-0.113-0.535-0.163-0.809
			c-0.095-0.516-0.172-1.023-0.233-1.522c-0.061-0.493-0.105-1.005-0.138-1.529c-0.032-0.525-0.048-1.04-0.048-1.542
			c0-0.502,0.016-1.017,0.048-1.542c0.032-0.524,0.077-1.036,0.138-1.532c0.062-0.494,0.139-1.002,0.233-1.521
			c0.095-0.511,0.203-1.009,0.322-1.492c0.008-0.04,0.004-0.08-0.014-0.119c-0.017-0.036-0.045-0.066-0.083-0.085l-6.438-3.718
			c-0.268-0.154-0.491-0.354-0.663-0.585c-0.184-0.241-0.316-0.512-0.393-0.794c-0.075-0.283-0.097-0.585-0.059-0.884
			c0.036-0.282,0.127-0.561,0.273-0.822c1.534-2.844,3.294-5.709,4.919-8.522l0.091,0.055c0.05-0.045,0.101-0.087,0.151-0.128
			c0.241-0.183,0.514-0.315,0.798-0.391c0.282-0.076,0.583-0.098,0.883-0.06c0.292,0.037,0.577,0.129,0.839,0.279l0.476,0.272v0.006
			l5.98,3.452c0.036,0.021,0.077,0.027,0.115,0.022c0.038-0.003,0.074-0.023,0.102-0.049l0.015-0.017
			c0.731-0.705,1.512-1.37,2.336-1.989c0.818-0.616,1.671-1.181,2.552-1.691c0.883-0.51,1.798-0.969,2.743-1.369
			c0.939-0.399,1.903-0.742,2.889-1.024c0.039-0.012,0.071-0.034,0.095-0.065c0.024-0.032,0.039-0.071,0.035-0.108v-7.446
			c0-0.304,0.063-0.598,0.175-0.865c0.117-0.28,0.286-0.531,0.496-0.739c0.209-0.209,0.459-0.377,0.735-0.492
			c0.268-0.112,0.563-0.175,0.867-0.175h9.136c0.306,0,0.599,0.063,0.866,0.175c0.276,0.115,0.526,0.283,0.738,0.492
			c0.413,0.412,0.667,0.979,0.667,1.604v7.446c0,0.043,0.016,0.082,0.038,0.113c0.022,0.029,0.059,0.052,0.1,0.062l0.028,0.009
			C577.844,60.544,578.803,60.886,579.724,61.278z"/>
	

		<!-- textures -->
	
		<g>
			<path style="fill-rule:evenodd;clip-rule:evenodd;fill:#FFFFFF;" d="M396.08,386.616c2.243,0,4.073-1.828,4.073-4.073
				c0-2.242-1.83-4.072-4.073-4.072c-2.244,0-4.073,1.83-4.073,4.072C392.007,384.788,393.836,386.616,396.08,386.616z"/>
			<g>
				<path style="fill-rule:evenodd;clip-rule:evenodd;fill:#A79CCB;" d="M141.428,291.603c0.894,0.369,1.696,0.909,2.366,1.58
					c0.669,0.67,1.21,1.474,1.581,2.365c0.356,0.858,0.552,1.8,0.552,2.783c0,0.985-0.196,1.927-0.552,2.784
					c-0.37,0.895-0.911,1.697-1.581,2.366c-0.67,0.671-1.473,1.21-2.366,1.582c-0.859,0.355-1.799,0.551-2.784,0.551
					c-0.985,0-1.926-0.195-2.784-0.551c-0.894-0.372-1.695-0.911-2.365-1.582c-0.669-0.669-1.211-1.472-1.581-2.366
					c-0.356-0.857-0.552-1.799-0.552-2.784c0-0.983,0.196-1.925,0.552-2.783c0.369-0.892,0.911-1.695,1.581-2.365
					c0.67-0.671,1.472-1.211,2.366-1.58c0.859-0.356,1.799-0.553,2.783-0.553C139.628,291.051,140.569,291.247,141.428,291.603
					L141.428,291.603z M143.319,287.344c-0.438-0.187-0.886-0.347-1.342-0.478c-0.169-0.04-0.316-0.139-0.423-0.272
					c-0.102-0.131-0.164-0.295-0.164-0.474v-3.722c0-0.127-0.053-0.241-0.136-0.326c-0.042-0.043-0.095-0.077-0.151-0.101
					c-0.053-0.022-0.112-0.034-0.174-0.034h-4.569c-0.063,0-0.121,0.012-0.175,0.034c-0.056,0.023-0.107,0.058-0.15,0.103
					c-0.044,0.042-0.078,0.095-0.102,0.147c-0.022,0.054-0.033,0.114-0.033,0.177l-0.002,3.722c0,0.171-0.057,0.332-0.154,0.463
					c-0.097,0.127-0.234,0.226-0.4,0.272c-0.47,0.135-0.926,0.298-1.366,0.485c-0.448,0.19-0.881,0.405-1.297,0.646
					c-0.422,0.244-0.827,0.514-1.21,0.802c-0.384,0.287-0.754,0.604-1.104,0.941c-0.12,0.119-0.274,0.192-0.437,0.216
					c-0.162,0.021-0.332-0.008-0.484-0.097l-3.226-1.862c-0.055-0.032-0.113-0.051-0.168-0.059c-0.06-0.006-0.122-0.002-0.184,0.015
					c-0.06,0.016-0.116,0.042-0.163,0.08c-0.047,0.034-0.088,0.079-0.119,0.135c-0.723,1.246-1.505,2.794-2.284,3.955
					c-0.03,0.051-0.049,0.109-0.057,0.168c-0.007,0.059-0.002,0.122,0.015,0.183c0.015,0.061,0.042,0.117,0.079,0.164
					c0.036,0.048,0.08,0.09,0.133,0.118l3.193,1.843c0.152,0.079,0.273,0.206,0.344,0.356c0.069,0.151,0.091,0.329,0.047,0.504
					c-0.058,0.236-0.109,0.474-0.152,0.708c-0.042,0.228-0.079,0.466-0.109,0.72c-0.03,0.242-0.052,0.485-0.066,0.724
					c-0.013,0.235-0.022,0.478-0.022,0.731c0,0.256,0.009,0.5,0.022,0.733c0.014,0.238,0.037,0.48,0.066,0.725
					c0.03,0.251,0.067,0.489,0.109,0.719c0.043,0.234,0.095,0.472,0.152,0.708l0.085,0.341l-0.084,0.018
					c-0.01,0.041-0.024,0.083-0.041,0.123c-0.063,0.146-0.171,0.274-0.321,0.359l-3.225,1.862c-0.052,0.03-0.097,0.07-0.131,0.117
					c-0.036,0.048-0.063,0.104-0.079,0.165c-0.017,0.061-0.022,0.123-0.015,0.184c0.008,0.057,0.027,0.114,0.057,0.167
					c0.758,1.32,1.527,2.635,2.284,3.955c0.031,0.055,0.071,0.099,0.119,0.135c0.047,0.038,0.103,0.064,0.163,0.079
					c0.062,0.018,0.124,0.023,0.185,0.014c0.058-0.006,0.114-0.025,0.167-0.055l3.188-1.84c0.146-0.099,0.32-0.14,0.49-0.123
					c0.167,0.016,0.33,0.085,0.458,0.208c0.35,0.338,0.72,0.654,1.11,0.947c0.388,0.294,0.794,0.563,1.214,0.806
					c0.413,0.238,0.845,0.454,1.289,0.644c0.438,0.186,0.886,0.347,1.342,0.478c0.169,0.04,0.316,0.139,0.422,0.272
					c0.103,0.129,0.165,0.294,0.165,0.472v3.723c0,0.063,0.011,0.121,0.034,0.174c0.023,0.057,0.058,0.108,0.101,0.151
					c0.043,0.042,0.095,0.078,0.15,0.103c0.054,0.021,0.113,0.034,0.175,0.034h4.569c0.063,0,0.121-0.013,0.174-0.034
					c0.057-0.024,0.109-0.061,0.15-0.103c0.044-0.043,0.079-0.095,0.102-0.151c0.022-0.053,0.035-0.111,0.035-0.174l0.001-3.723
					c0-0.168,0.057-0.331,0.154-0.46c0.097-0.129,0.234-0.228,0.399-0.274c0.47-0.135,0.926-0.298,1.366-0.483
					c0.448-0.191,0.882-0.407,1.298-0.647c0.42-0.243,0.827-0.512,1.214-0.806c0.39-0.293,0.76-0.609,1.111-0.949
					c0.12-0.113,0.274-0.185,0.437-0.204c0.155-0.018,0.321,0.012,0.472,0.097c1.054,0.608,2.207,1.222,3.229,1.864
					c0.053,0.03,0.11,0.047,0.167,0.055c0.06,0.01,0.123,0.004,0.184-0.014c0.06-0.015,0.116-0.041,0.163-0.079
					c0.047-0.036,0.088-0.08,0.118-0.135l0.172-0.294l2.112-3.661c0.031-0.053,0.05-0.11,0.057-0.167
					c0.008-0.061,0.003-0.123-0.013-0.184c-0.016-0.059-0.044-0.115-0.081-0.165c-0.035-0.045-0.08-0.087-0.133-0.117l-0.338-0.197
					l-2.852-1.647c-0.155-0.078-0.276-0.205-0.346-0.356c-0.07-0.151-0.091-0.326-0.048-0.502c0.059-0.236,0.111-0.474,0.153-0.71
					c0.042-0.228,0.079-0.468,0.109-0.717c0.029-0.244,0.052-0.486,0.066-0.725c0.013-0.233,0.021-0.478,0.021-0.733
					c0-0.254-0.008-0.498-0.021-0.731c-0.014-0.238-0.037-0.481-0.066-0.724c-0.03-0.25-0.067-0.49-0.109-0.72
					c-0.042-0.234-0.095-0.472-0.152-0.708l-0.075-0.3l0.066-0.022c0.01-0.055,0.026-0.108,0.048-0.159
					c0.063-0.146,0.172-0.274,0.321-0.36c1.02-0.589,2.259-1.226,3.222-1.861c0.053-0.03,0.099-0.07,0.133-0.118
					c0.037-0.049,0.064-0.103,0.081-0.164c0.016-0.061,0.021-0.123,0.013-0.185c-0.006-0.057-0.025-0.115-0.057-0.168
					c-0.723-1.25-1.505-2.773-2.285-3.953c-0.03-0.056-0.071-0.101-0.118-0.135c-0.047-0.038-0.103-0.064-0.163-0.08
					c-0.059-0.015-0.119-0.02-0.179-0.015c-0.054,0.008-0.107,0.022-0.157,0.049c-1.048,0.645-2.172,1.254-3.242,1.872
					c-0.146,0.085-0.313,0.117-0.475,0.099c-0.158-0.02-0.312-0.091-0.436-0.209c-0.349-0.337-0.72-0.651-1.11-0.947
					c-0.388-0.291-0.794-0.561-1.214-0.805C144.195,287.749,143.765,287.534,143.319,287.344z"/>
				<g>
					<path style="fill-rule:evenodd;clip-rule:evenodd;fill:#A79CCB;" d="M56.665,362.286h4.704c1.132,0,2.057,0.924,2.057,2.057
						v4.704c0,1.131-0.925,2.057-2.057,2.057h-4.704c-1.132,0-2.058-0.926-2.058-2.057v-4.704
						C54.607,363.21,55.533,362.286,56.665,362.286z"/>
					<path style="fill-rule:evenodd;clip-rule:evenodd;fill:#FFFFFF;" d="M72.978,362.286h4.705c1.133,0,2.057,0.924,2.057,2.057
						v4.704c0,1.131-0.924,2.057-2.057,2.057h-4.705c-1.132,0-2.056-0.926-2.056-2.057v-4.704
						C70.921,363.21,71.846,362.286,72.978,362.286z"/>
					<path style="fill-rule:evenodd;clip-rule:evenodd;fill:#A79CCB;" d="M89.292,362.286h4.704c1.133,0,2.058,0.924,2.058,2.057
						v4.704c0,1.131-0.925,2.057-2.058,2.057h-4.704c-1.132,0-2.057-0.926-2.057-2.057v-4.704
						C87.235,363.21,88.16,362.286,89.292,362.286z"/>
					<path style="fill-rule:evenodd;clip-rule:evenodd;fill:#FFFFFF;" d="M105.605,362.286h4.705c1.132,0,2.059,0.924,2.059,2.057
						v4.704c0,1.131-0.927,2.057-2.059,2.057h-4.705c-1.131,0-2.057-0.926-2.057-2.057v-4.704
						C103.548,363.21,104.475,362.286,105.605,362.286z"/>
					<path style="fill-rule:evenodd;clip-rule:evenodd;fill:#A79CCB;" d="M121.921,362.286h4.704c1.132,0,2.057,0.924,2.057,2.057
						v4.704c0,1.131-0.925,2.057-2.057,2.057h-4.704c-1.132,0-2.057-0.926-2.057-2.057v-4.704
						C119.864,363.21,120.789,362.286,121.921,362.286z"/>
					<path style="fill-rule:evenodd;clip-rule:evenodd;fill:#FFFFFF;" d="M89.883,380.071h4.704c1.132,0,2.057,0.927,2.057,2.058
						v4.703c0,1.133-0.925,2.057-2.057,2.057h-4.704c-1.132,0-2.058-0.924-2.058-2.057v-4.703
						C87.826,380.998,88.752,380.071,89.883,380.071z"/>
					<path style="fill-rule:evenodd;clip-rule:evenodd;fill:#A79CCB;" d="M106.197,380.071h4.704c1.133,0,2.057,0.927,2.057,2.058
						v4.703c0,1.133-0.924,2.057-2.057,2.057h-4.704c-1.133,0-2.057-0.924-2.057-2.057v-4.703
						C104.14,380.998,105.064,380.071,106.197,380.071z"/>
					<path style="fill-rule:evenodd;clip-rule:evenodd;fill:#FFFFFF;" d="M122.511,380.071h4.704c1.133,0,2.058,0.927,2.058,2.058
						v4.703c0,1.133-0.925,2.057-2.058,2.057h-4.704c-1.132,0-2.057-0.924-2.057-2.057v-4.703
						C120.454,380.998,121.379,380.071,122.511,380.071z"/>
				</g>
				<path style="fill-rule:evenodd;clip-rule:evenodd;fill:#FFFFFF;" d="M653.213,284.163c0-0.599,0.487-1.086,1.086-1.086
					c0.599,0,1.085,0.487,1.085,1.086v4.885c0,0.6-0.486,1.086-1.085,1.086c-0.599,0-1.086-0.485-1.086-1.086V284.163
					L653.213,284.163z M645.81,288.13c-0.425-0.425-0.425-1.112,0-1.537c0.424-0.424,1.111-0.424,1.536,0l3.453,3.454
					c0.424,0.424,0.424,1.113,0,1.538c-0.425,0.422-1.112,0.422-1.536,0L645.81,288.13L645.81,288.13z M643.38,296.167
					c-0.599,0-1.086-0.487-1.086-1.086c0-0.599,0.487-1.085,1.086-1.085h4.886c0.599,0,1.085,0.486,1.085,1.085
					c0,0.599-0.486,1.086-1.085,1.086H643.38L643.38,296.167z M647.347,303.569c-0.425,0.425-1.112,0.425-1.536,0
					c-0.425-0.424-0.425-1.111,0-1.536l3.453-3.455c0.424-0.423,1.111-0.423,1.536,0c0.424,0.425,0.424,1.114,0,1.538
					L647.347,303.569L647.347,303.569z M655.384,306c0,0.599-0.486,1.085-1.085,1.085c-0.599,0-1.086-0.486-1.086-1.085v-4.886
					c0-0.601,0.487-1.085,1.086-1.085c0.599,0,1.085,0.484,1.085,1.085V306L655.384,306z M662.786,302.033
					c0.425,0.425,0.425,1.112,0,1.536c-0.424,0.425-1.111,0.425-1.536,0l-3.453-3.453c-0.424-0.424-0.424-1.113,0-1.538
					c0.423-0.423,1.11-0.423,1.534,0L662.786,302.033L662.786,302.033z M665.217,293.996c0.599,0,1.086,0.486,1.086,1.085
					c0,0.599-0.487,1.086-1.086,1.086h-4.885c-0.601,0-1.088-0.487-1.088-1.086c0-0.599,0.487-1.085,1.088-1.085H665.217
					L665.217,293.996z M661.25,286.593c0.425-0.424,1.112-0.424,1.536,0c0.425,0.425,0.425,1.112,0,1.537l-3.455,3.455
					c-0.424,0.422-1.111,0.422-1.534,0c-0.424-0.425-0.424-1.114,0-1.538L661.25,286.593z"/>
				<path style="fill-rule:evenodd;clip-rule:evenodd;fill:#FFFFFF;" d="M435.013,88.735c0-0.599,0.487-1.085,1.087-1.085
					c0.599,0,1.084,0.486,1.084,1.085v4.886c0,0.599-0.485,1.085-1.084,1.085c-0.6,0-1.087-0.486-1.087-1.085V88.735L435.013,88.735
					z M427.61,92.702c-0.425-0.424-0.425-1.112,0-1.536c0.424-0.425,1.113-0.425,1.536,0l3.453,3.454
					c0.424,0.424,0.424,1.112,0,1.536c-0.423,0.424-1.11,0.424-1.534,0L427.61,92.702L427.61,92.702z M425.182,100.739
					c-0.599,0-1.088-0.486-1.088-1.085c0-0.6,0.489-1.086,1.088-1.086h4.883c0.601,0,1.088,0.486,1.088,1.086
					c0,0.599-0.487,1.085-1.088,1.085H425.182L425.182,100.739z M429.146,108.143c-0.423,0.424-1.112,0.424-1.536,0
					c-0.425-0.425-0.425-1.112,0-1.536l3.455-3.454c0.424-0.425,1.111-0.425,1.534,0c0.424,0.423,0.424,1.111,0,1.536
					L429.146,108.143L429.146,108.143z M437.184,110.571c0,0.6-0.485,1.087-1.084,1.087c-0.6,0-1.087-0.487-1.087-1.087v-4.884
					c0-0.6,0.487-1.086,1.087-1.086c0.599,0,1.084,0.486,1.084,1.086V110.571L437.184,110.571z M444.586,106.606
					c0.425,0.424,0.425,1.111,0,1.536c-0.424,0.424-1.111,0.424-1.534,0l-3.455-3.454c-0.424-0.425-0.424-1.113,0-1.536
					c0.425-0.425,1.112-0.425,1.536,0L444.586,106.606L444.586,106.606z M447.017,98.568c0.601,0,1.086,0.486,1.086,1.086
					c0,0.599-0.485,1.085-1.086,1.085h-4.885c-0.599,0-1.086-0.486-1.086-1.085c0-0.6,0.487-1.086,1.086-1.086H447.017
					L447.017,98.568z M443.052,91.166c0.423-0.425,1.11-0.425,1.534,0c0.425,0.424,0.425,1.112,0,1.536l-3.453,3.454
					c-0.424,0.424-1.111,0.424-1.536,0c-0.424-0.424-0.424-1.112,0-1.536L443.052,91.166z"/>
				<path style="fill-rule:evenodd;clip-rule:evenodd;fill:#A79CCB;" d="M624.575,212.047c0-0.599,0.487-1.086,1.086-1.086
					c0.601,0,1.087,0.487,1.087,1.086v4.885c0,0.599-0.486,1.086-1.087,1.086c-0.599,0-1.086-0.487-1.086-1.086V212.047
					L624.575,212.047z M617.175,216.013c-0.425-0.424-0.425-1.111,0-1.536c0.422-0.424,1.109-0.424,1.534,0l3.455,3.453
					c0.425,0.425,0.425,1.113,0,1.537c-0.424,0.424-1.112,0.424-1.536,0L617.175,216.013L617.175,216.013z M614.744,224.051
					c-0.599,0-1.085-0.487-1.085-1.086c0-0.6,0.486-1.086,1.085-1.086h4.886c0.599,0,1.085,0.486,1.085,1.086
					c0,0.599-0.486,1.086-1.085,1.086H614.744L614.744,224.051z M618.709,231.453c-0.425,0.425-1.112,0.425-1.534,0
					c-0.425-0.424-0.425-1.111,0-1.536l3.453-3.454c0.424-0.425,1.112-0.425,1.536,0c0.425,0.423,0.425,1.112,0,1.536
					L618.709,231.453L618.709,231.453z M626.748,233.883c0,0.6-0.486,1.086-1.087,1.086c-0.599,0-1.086-0.486-1.086-1.086v-4.885
					c0-0.6,0.487-1.085,1.086-1.085c0.601,0,1.087,0.485,1.087,1.085V233.883L626.748,233.883z M634.149,229.917
					c0.424,0.425,0.424,1.112,0,1.536c-0.425,0.425-1.112,0.425-1.535,0l-3.455-3.454c-0.424-0.424-0.424-1.113,0-1.536
					c0.425-0.425,1.112-0.425,1.537,0L634.149,229.917L634.149,229.917z M636.579,221.879c0.601,0,1.088,0.486,1.088,1.086
					c0,0.599-0.487,1.086-1.088,1.086h-4.885c-0.599,0-1.086-0.487-1.086-1.086c0-0.6,0.487-1.086,1.086-1.086H636.579
					L636.579,221.879z M632.614,214.477c0.423-0.424,1.11-0.424,1.535,0c0.424,0.425,0.424,1.112,0,1.536l-3.453,3.454
					c-0.425,0.424-1.112,0.424-1.537,0c-0.424-0.424-0.424-1.112,0-1.537L632.614,214.477z"/>
				<path style="fill-rule:evenodd;clip-rule:evenodd;fill:#FFFFFF;" d="M481.428,105.357c2.243,0,4.073-1.829,4.073-4.074
					c0-2.244-1.83-4.073-4.073-4.073c-2.244,0-4.074,1.829-4.074,4.073C477.353,103.528,479.184,105.357,481.428,105.357z"/>
				<path style="fill-rule:evenodd;clip-rule:evenodd;fill:#FFFFFF;" d="M155.554,250.837c2.244,0,4.074-1.829,4.074-4.074
					c0-2.243-1.83-4.072-4.074-4.072c-2.244,0-4.073,1.829-4.073,4.072C151.481,249.008,153.311,250.837,155.554,250.837z"/>
			</g>
		</g>


		<!-- person -->
		<g transform="translate(-150,0)">

<g id="armInitial">
		<!-- arm light base -->
			<path style="fill-rule:evenodd;clip-rule:evenodd;fill:#212850;" d="M440.72,177.07l7.339,11.528c0,0-11.016,77.082-6.931,80.755
				c4.084,3.675,43.183-28.277,46.756-30.624c3.574-2.349,15.167-5.042,20.236-6.515c5.069-1.474-12.921,23.845-12.921,23.845
				l-8.952,40.158c-15.372,5.323-39.774,11.244-50.301,10.494c-21.649-1.542-21.263-19.079-19.723-42.439
				c1.691-25.671,9.795-79.135,9.795-79.135L440.72,177.07z"/>

				<!-- arm dark strips-->
			<path style="fill-rule:evenodd;clip-rule:evenodd;fill:#050A26;" d="M440.72,177.07l7.339,11.528c0,0-6.511,45.569-7.664,68.302
				c0.466-13.309,1.724-51.603,0.822-53.605c-1.09-2.425-9.214-9.456-12.002-9.577c-0.983-0.043-2.779,0.669-4.694,1.607
				c0.903-6.247,1.498-10.186,1.498-10.186L440.72,177.07L440.72,177.07z M440.235,261.361l-0.002,0.054v0.002L440.235,261.361
				L440.235,261.361z M477.103,246.98c1.053,3.517,1.621,7.046,0.849,9.538c-2.183,7.032-18.185,35.158-26.672,39.765
				c-6.971,3.783-22.607,8.873-30.795,3.451c3.078,3.975,7.938,6.442,15.461,6.979c10.526,0.75,34.929-5.171,50.301-10.494
				l8.952-40.158c0,0,17.99-25.318,12.921-23.845c-5.069,1.473-16.662,4.166-20.236,6.515
				C486.821,239.428,482.604,242.753,477.103,246.98z"/>

				<!-- hand -->
			<path id="hand" style="fill-rule:evenodd;clip-rule:evenodd;fill:#F4AD85;" d="M456.68,181.829c3.653-4.349,8.251-6.244,9.997-6.771
				c2.31-0.697-2.244-8.831-9.065-3.055c0,0-4.007,1.379-4.952-0.215c-0.944-1.596,8.905-24.217,9.983-26.689
				c1.076-2.473-1.542-4.176-2.637-3.923c-1.093,0.253-2.61,3.856-4.84,8.284c-2.231,4.429-4.795,9.386-5.402,9.609
				c-0.607,0.222-1.601-0.331-1.324-3.237c0.276-2.905,2.403-18.842,1.608-20.143c-0.792-1.297-3.598-1.311-4.632,0.988
				c-1.034,2.299-2.572,18.471-3.425,20.479c-0.854,2.01-2.685,0.868-2.949-0.637c-0.264-1.504-1.072-19.276-1.772-20.516
				c-0.697-1.239-3.56-1.154-4.019,1.505c-0.456,2.66-0.394,19.698-1.053,20.756c-0.663,1.059-2.552,1.083-3.997-1.961
				c-1.443-3.044-3.719-9.686-4.586-10.225c-0.866-0.542-3.562,1.52-2.658,4.896c0.902,3.374,2.853,11.82,2.985,13.108
				c0.701,6.797-0.557,13.143,0.717,18.368c0.46,1.891,1.443,3.681,2.784,5.267c3.169,3.747,8.344,6.35,13.379,6.441
				C449.568,194.318,451.653,187.814,456.68,181.829z"/>

			<!-- hand shadow -->
			<path style="fill-rule:evenodd;clip-rule:evenodd;fill:#EF8871;" d="M446.6,186.31c-3.474,1.767-7.896,2.345-13.606-0.163
				c-1.563-0.688-3.059-1.501-4.47-2.381c-1.499-0.936-2.9-1.948-4.183-2.964c0.083,0.561,0.188,1.112,0.318,1.65
				c0.265,1.094,0.706,2.152,1.291,3.158c0.425,0.733,0.929,1.439,1.493,2.108c3.169,3.747,8.344,6.35,13.379,6.441
				c2.813,0.051,4.938-0.588,6.692-1.676c3.699-2.297,5.755-6.596,9.165-10.655c3.653-4.349,8.251-6.244,9.997-6.771
				c0.683-0.205,0.766-1.058,0.372-2.009c-3.573,2.013-11.074,4.842-14.561,8.587C450.895,183.346,448.968,185.105,446.6,186.31z"/>

</g>


<g transform="translate(150,0)">


<!-- arm light base -->
<path fill-rule="evenodd" clip-rule="evenodd" d="M265 177.07L273 188.598C273 188.598 287.043 265.68 291.128 269.353C295.212 273.028 334.311 241.076 337.884 238.729C341.458 236.38 353.051 233.687 358.12 232.214C363.189 230.74 345.199 256.059 345.199 256.059L336.247 296.217C320.875 301.54 296.473 307.461 285.946 306.711C264.297 305.169 261.68 286.632 258.22 263.272C253.5 239.729 250 186.5 250 186.5L265 177.07Z" fill="#212850"/>
<!-- arm dark strips -->
<path fill-rule="evenodd" clip-rule="evenodd" d="M265.72 177.07L273.06 188.598C273.06 188.598 284.548 234.167 286.395 256.9C286.861 243.591 266.22 203.295 266.22 203.295C266.22 203.295 257.788 193.839 255 193.718C254.017 193.675 250.52 195.325 250.52 195.325C251.423 189.078 250 185.139 250 185.139L265.72 177.07ZM290.235 261.361L290.233 261.415L287.233 261.417L290.235 261.361ZM327.103 246.98C328.156 250.497 328.724 254.026 327.952 256.518C325.769 263.55 309.767 291.676 301.28 296.283C294.309 300.066 278.673 305.156 270.485 299.734C273.563 303.709 278.423 306.176 285.946 306.713C296.472 307.463 320.875 301.542 336.247 296.219L345.199 256.061C345.199 256.061 363.189 230.743 358.12 232.216C353.051 233.689 341.458 236.382 337.884 238.731C336.821 239.428 332.604 242.753 327.103 246.98Z" fill="#050A26"/>

<!-- hand -->
<path id="handTarget" style="display:none" fill-rule="evenodd" clip-rule="evenodd" d="M279.852 178.662C282.255 173.516 286.206 170.495 287.756 169.534C289.807 168.263 283.303 161.585 278.209 168.929C278.209 168.929 274.696 171.299 273.37 170.003C272.045 168.706 275.704 144.307 276.105 141.64C276.505 138.973 273.535 138.005 272.543 138.533C271.553 139.061 271.02 142.933 270.012 147.788C269.003 152.643 267.81 158.095 267.281 158.467C266.752 158.839 265.649 158.562 265.164 155.683C264.679 152.806 262.609 136.861 261.504 135.811C260.403 134.763 257.689 135.475 257.286 137.964C256.882 140.452 259.582 156.471 259.278 158.631C258.973 160.794 256.909 160.165 256.264 158.779C255.62 157.395 250.24 140.438 249.243 139.421C248.249 138.405 245.505 139.228 245.75 141.915C245.998 144.602 250.468 161.044 250.105 162.236C249.739 163.431 247.92 163.943 245.737 161.377C243.555 158.81 239.638 152.983 238.661 152.687C237.684 152.388 235.613 155.077 237.36 158.104C239.105 161.13 243.175 168.783 243.636 169.993C246.073 176.377 246.5 182.832 249.083 187.549C250.017 189.257 251.429 190.731 253.135 191.916C257.166 194.715 262.838 195.89 267.725 194.675C276.215 192.566 276.545 185.744 279.852 178.662Z" fill="#F4AD85"/>
<!-- hand shadow -->
<path fill-rule="evenodd" clip-rule="evenodd" d="M271.231 186.039C268.287 188.594 264.137 190.224 257.989 189.172C256.306 188.883 254.658 188.456 253.076 187.943C251.395 187.398 249.791 186.755 248.3 186.079C248.517 186.604 248.752 187.113 249.008 187.603C249.53 188.601 250.214 189.521 251.025 190.355C251.615 190.964 252.274 191.527 252.983 192.039C256.965 194.909 262.616 196.182 267.523 195.052C270.265 194.421 272.172 193.287 273.611 191.807C276.644 188.684 277.599 184.015 279.926 179.252C282.418 174.148 286.421 171.197 287.988 170.263C288.601 169.899 288.475 169.051 287.863 168.224C284.883 171.041 278.289 175.601 275.812 180.078C274.681 182.124 273.237 184.297 271.231 186.039Z" fill="#EF8871"/>

</g>


			<path style="fill-rule:evenodd;clip-rule:evenodd;fill:#FFFFFF;" d="M601.498,250.155c2.809,23.216,3.518,78.932,3.518,78.932
				s-9.945,46.646-9.945,68.919c0,7.507-0.494,14.83-1.314,21.487h-40.535c-11.415-5.426-26.058-9.466-44.358-9.466h-35.03
				c0,0-5.166-3.783-5.573-10.438c-0.409-6.654,11.409-45.161,11.68-52.223c1.02-26.527-2.504-57.227,2.332-82.69
				c4.194-22.1,23.643-32.189,46.223-35.077c8.926-0.207,21.787-0.1,34.776,1.407C563.598,231.078,585.501,235.903,601.498,250.155z
				"/>
			<g>
				<path style="fill-rule:evenodd;clip-rule:evenodd;fill:#716AAE;" d="M529.065,280.561c2.29,0,4.556,0.22,6.768,0.641
					c2.26,0.426,4.438,1.061,6.513,1.879c1.271,0.496,1.897,1.931,1.401,3.201c-0.178,0.459-0.479,0.834-0.851,1.101
					c-1.684,1.228-3.07,2.844-4.025,4.717c-0.917,1.8-1.434,3.842-1.434,6.007c0,3.658,1.481,6.969,3.878,9.367
					c2.398,2.395,5.709,3.88,9.367,3.88c1.837,0,3.574-0.364,5.135-1.023c1.639-0.69,3.11-1.701,4.336-2.955
					c0.951-0.978,2.516-0.998,3.493-0.047c0.351,0.343,0.58,0.763,0.682,1.21c0.315,1.334,0.552,2.697,0.711,4.086
					c0.157,1.381,0.238,2.768,0.238,4.154c0,9.998-4.054,19.053-10.605,25.607c-6.553,6.553-15.607,10.606-25.607,10.606
					c-9.999,0-19.054-4.054-25.608-10.606c-6.552-6.554-10.605-15.608-10.605-25.607c0-10.002,4.054-19.057,10.605-25.608
					C510.011,284.617,519.065,280.561,529.065,280.561L529.065,280.561z M534.924,286.057c-1.877-0.355-3.836-0.541-5.859-0.541
					c-8.634,0-16.449,3.498-22.105,9.156c-5.658,5.656-9.157,13.473-9.157,22.106c0,8.632,3.499,16.448,9.157,22.105
					c5.656,5.658,13.472,9.156,22.105,9.156c8.633,0,16.45-3.498,22.106-9.156c5.656-5.656,9.155-13.473,9.155-22.105
					c0-1.08-0.052-2.131-0.153-3.152c-0.777,0.476-1.592,0.895-2.441,1.25c-2.182,0.921-4.567,1.429-7.05,1.429
					c-5.024,0-9.574-2.038-12.868-5.33c-3.292-3.293-5.33-7.845-5.33-12.868c0-2.969,0.714-5.771,1.978-8.251
					c0.621-1.221,1.379-2.362,2.25-3.404C536.121,286.302,535.524,286.171,534.924,286.057z"/>
				<path style="fill-rule:evenodd;clip-rule:evenodd;fill:#716AAE;" d="M532.046,283.168c1.279,0.112,2.537,0.296,3.771,0.546
					l-39.814,39.815c-0.252-1.235-0.432-2.493-0.543-3.771L532.046,283.168L532.046,283.168z M539.893,284.815l-42.792,42.789
					c0.356,1.056,0.766,2.088,1.223,3.094l37.381-37.382c1.028-3.22,3.067-5.987,5.741-7.933
					C540.935,285.182,540.415,284.99,539.893,284.815L539.893,284.815z M534.998,299.195l-34.895,34.896
					c0.534,0.891,1.11,1.756,1.722,2.592l33.856-33.857C535.317,301.668,535.085,300.453,534.998,299.195L534.998,299.195z
					 M537.309,306.375l-33.155,33.155c0.688,0.752,1.405,1.47,2.157,2.157l32.868-32.867
					C538.479,308.07,537.852,307.25,537.309,306.375L537.309,306.375z M541.977,311.197l-32.818,32.818
					c0.835,0.612,1.699,1.188,2.591,1.722l33.05-33.049C543.802,312.287,542.856,311.785,541.977,311.197L541.977,311.197z
					 M548.932,313.73l-33.788,33.788c1.006,0.456,2.039,0.863,3.094,1.222l35.141-35.143c-0.875,0.153-1.775,0.231-2.695,0.231
					C550.091,313.829,549.506,313.795,548.932,313.73L548.932,313.73z M562.125,310.027l-39.814,39.812
					c1.233,0.252,2.493,0.432,3.772,0.544l36.59-36.59C562.561,312.517,562.375,311.259,562.125,310.027L562.125,310.027z
					 M562.733,318.907l-31.537,31.54c1.704-0.108,3.375-0.34,5.002-0.689l25.846-25.848
					C562.394,322.283,562.627,320.612,562.733,318.907L562.733,318.907z M559.227,331.902c-3.259,6.487-8.551,11.778-15.039,15.038
					L559.227,331.902L559.227,331.902z M495.395,314.646l31.539-31.538c-1.706,0.107-3.377,0.34-5.003,0.688l-25.847,25.85
					C495.733,311.27,495.502,312.94,495.395,314.646L495.395,314.646z M498.9,301.65l15.039-15.036
					C507.451,289.872,502.16,295.165,498.9,301.65z"/>
			</g>
			<path style="fill-rule:evenodd;clip-rule:evenodd;fill:#EAE5F1;" d="M601.498,250.155c2.809,23.216,3.518,78.932,3.518,78.932
				s-9.945,46.646-9.945,68.919c0,7.507-0.494,14.83-1.314,21.487h-40.535c-11.415-5.426-26.058-9.466-44.358-9.466h-2.413
				c3.935-3.281,44.103,2.419,50.918,0.466c21.776-6.243,13.5-124.939,10.585-145.357c-2.144-15.01-24.929-26.268-24.929-26.268
				l4.785-9.076c4.965,0.224,10.202,0.604,15.461,1.214C563.598,231.078,585.501,235.903,601.498,250.155z"/>
			<path style="fill-rule:evenodd;clip-rule:evenodd;fill:#050A26;" d="M601.501,250.158c0.76,6.288,1.364,14.952,1.846,24.249
				c-11.055,4.319-18.986,7.035-18.986,7.035c-0.938-33.579-22.703-39.037-22.703-39.037l-6.9-7.949c0,0-23.427-0.92-45.496,6.559
				c-21.675,7.347-27.807,29.264-28.017,30.04c1.532-11.339,4.423-21.849,9.718-30.77c2.754-4.645,17.348-8.364,25.618-10.138
				c0,0,23.149-1.872,46.706,0.865C564.076,231.186,585.681,236.061,601.501,250.158z"/>
			<path style="fill-rule:evenodd;clip-rule:evenodd;fill:#212850;" d="M563.258,231.004v2.166c0,15.179-12.39,27.568-27.568,27.568
				c-15.181,0-27.569-12.389-27.569-27.568v-0.955c3.36-0.848,6.497-1.565,8.962-2.105
				C520.552,229.86,541.726,228.509,563.258,231.004z"/>
			<path style="fill-rule:evenodd;clip-rule:evenodd;fill:#050A26;" d="M563.258,231.004v2.166c0,5.985-1.928,11.536-5.191,16.066
				c-6.984-6.386-15.043-10.367-15.043-10.367l4.785-9.076C552.769,230.017,558.002,230.396,563.258,231.004z"/>
			<path style="fill-rule:evenodd;clip-rule:evenodd;fill:#EB6B5D;" d="M535.69,188.781L535.69,188.781
				c-10.512,0-19.109,8.6-19.109,19.11v25.278c0,10.51,8.598,19.108,19.109,19.108l0,0c10.511,0,19.109-8.599,19.109-19.108v-25.278
				C554.799,197.381,546.2,188.781,535.69,188.781z"/>
			<path style="fill-rule:evenodd;clip-rule:evenodd;fill:#212850;" d="M617.36,277.483c0.201,1.697,0.393,3.477,0.576,5.327
				l0.002,0.015l0,0c2.665,27.111,3.184,69.067-2.084,79.729c-7.327,14.832-58.487,52.438-58.487,52.438s-13.527-3.296-14.777-8.121
				c-1.25-4.824,0.178-9.471,0.178-9.471s38.954-32.341,43.242-45.923c0,0,1.789-3.933,0.719-16.084
				c-1.072-12.152-3.397-62.365-3.219-69.87c0.125-5.241,1.21-18.321,5.808-24.08C601.692,248.608,614.422,260.045,617.36,277.483z"
				/>
			<path style="fill-rule:evenodd;clip-rule:evenodd;fill:#050A26;" d="M618.91,348.153c-0.65,6.453-1.645,11.549-3.056,14.401
				c-7.327,14.832-58.487,52.438-58.487,52.438s-13.527-3.296-14.777-8.121c-1.25-4.824,0.178-9.471,0.178-9.471
				s3.969-3.295,9.506-8.218c0.736,4.06,1.744,8.496,2.818,9.974c2.144,2.947,7.593,6.705,20.013-3.35
				C587.122,386.08,616.3,366.384,618.91,348.153L618.91,348.153z M581.542,359.293h0.002c7.906-9.333,9.465-16.158,10.271-21.252
				c0.803-5.092-2.683-57.091-2.683-76.928c0-7.751,1.597-13.496,3.542-17.62c-1.117-0.718-2.238-1.401-3.356-2.05
				c-4.598,5.759-5.683,18.839-5.808,24.08c-0.178,7.505,2.147,57.718,3.219,69.87c1.07,12.151-0.719,16.084-0.719,16.084
				C585.318,353.667,583.724,356.344,581.542,359.293z"/>
			<path style="fill-rule:evenodd;clip-rule:evenodd;fill:#212850;" d="M433.225,419.493h132.341c2.476,0,4.501-2.023,4.501-4.499
				v-0.002c0-2.474-2.027-4.499-4.501-4.499H433.225c-2.474,0-4.501,2.025-4.501,4.499v0.002
				C428.724,417.47,430.751,419.493,433.225,419.493z"/>
			<path style="fill-rule:evenodd;clip-rule:evenodd;fill:#050A26;" d="M433.225,419.493h132.341c1.604,0,3.018-0.849,3.815-2.122
				c-0.798-1.271-2.213-2.121-3.815-2.121H433.225c-1.602,0-3.018,0.851-3.815,2.121
				C430.207,418.645,431.622,419.493,433.225,419.493z"/>
			<path style="fill-rule:evenodd;clip-rule:evenodd;fill:#050A26;" d="M429.726,410.493h113.332c3.237,0,5.561-2.65,5.162-5.888
				l-9.034-73.408c-0.397-3.235-3.373-5.886-6.61-5.886H419.243c-3.237,0-5.56,2.65-5.162,5.886l9.034,73.408
				C423.515,407.843,426.488,410.493,429.726,410.493z"/>
			<path style="fill-rule:evenodd;clip-rule:evenodd;fill:#212850;" d="M429.726,410.493h109.988c3.238,0,5.563-2.65,5.162-5.888
				l-9.033-73.408c-0.398-3.235-3.374-5.886-6.611-5.886H419.243c-3.237,0-5.56,2.65-5.162,5.886l9.034,73.408
				C423.513,407.843,426.488,410.493,429.726,410.493z"/>
			<path style="fill-rule:evenodd;clip-rule:evenodd;fill:#282A69;" d="M516.333,404.566h-9.742l-76.903-64.553l0.457-3.705
				c0.137-1.11,0.621-2.136,1.333-2.971L516.333,404.566L516.333,404.566z M442.542,331.239l83.89,70.417
				c0.393-0.655,0.657-1.387,0.752-2.159l1.211-9.825l-69.612-58.433H442.542z"/>
			<path style="fill-rule:evenodd;clip-rule:evenodd;fill:#212850;" d="M549.167,419.493h16.398c2.476,0,4.501-2.023,4.501-4.499
				v-0.002c0-2.474-2.025-4.499-4.501-4.499h-16.398c-2.476,0-4.501,2.025-4.501,4.499v0.002
				C544.666,417.47,546.691,419.493,549.167,419.493z"/>
			<path style="fill-rule:evenodd;clip-rule:evenodd;fill:#282A69;" d="M430.975,412.743h117.906c1.238,0,2.25-1.013,2.25-2.25l0,0
				c0-1.237-1.012-2.25-2.25-2.25H430.975c-1.237,0-2.251,1.013-2.251,2.25l0,0C428.724,411.73,429.737,412.743,430.975,412.743z"/>
			<path style="fill-rule:evenodd;clip-rule:evenodd;fill:#A79CCB;" d="M474.326,356.588c-6.249,0-10.682,5.065-9.899,11.314
				c0.782,6.249,6.482,11.314,12.731,11.314c6.249,0,10.68-5.065,9.897-11.314c-0.121-0.976-0.363-1.923-0.708-2.828
				c-0.885,1.059-2.232,1.719-3.815,1.719c-3.088,0-5.902-2.503-6.289-5.589c-0.206-1.651,0.324-3.135,1.334-4.157
				C476.527,356.749,475.436,356.588,474.326,356.588z"/>
			<g>
				<path style="fill-rule:evenodd;clip-rule:evenodd;fill:#E8685B;" d="M495.866,177.965c-0.256,0.046-0.506,0.101-0.754,0.164
					l-0.008,0.003v-0.001c-4.576,1.184-7.897,5.405-7.761,10.332c0.159,5.729,4.933,10.243,10.661,10.083
					c5.728-0.159,10.242-4.933,10.083-10.659c-0.093-3.33-1.743-6.248-4.233-8.077c0.407,3.047,0.098,6.857-3.791,7.42l-0.166-5.982
					C499.831,178.827,497.521,177.819,495.866,177.965z"/>
				<path style="fill-rule:evenodd;clip-rule:evenodd;fill:#E8685B;" d="M570.671,174.461c0.257,0.022,0.513,0.053,0.765,0.094
					l0.01,0.001h-0.002c4.667,0.752,8.369,4.643,8.694,9.562c0.375,5.717-3.955,10.659-9.672,11.035
					c-5.719,0.376-10.659-3.954-11.036-9.67c-0.22-3.323,1.152-6.384,3.461-8.439c-0.121,3.073,0.544,6.837,4.465,7.034
					l-0.392-5.971C566.805,175.689,569.007,174.472,570.671,174.461z"/>
			</g>
			<path style="fill-rule:evenodd;clip-rule:evenodd;fill:#F4AD85;" d="M530.846,124.438L530.846,124.438
				c-19.517,0.915-34.739,17.632-33.826,37.148l1.514,32.274c0.913,19.517,17.63,34.737,37.148,33.822l0,0
				c19.513-0.913,34.735-17.63,33.82-37.146l-1.512-32.274C567.075,138.745,550.358,123.525,530.846,124.438z"/>
			<path style="fill-rule:evenodd;clip-rule:evenodd;fill:#EF8871;" d="M530.846,124.438L530.846,124.438
				c-17.774,0.834-31.981,14.769-33.689,31.992l9.66,4.613c0,0,1.576-3.906,8.269-4.051c6.692-0.145,19.202-1.019,27.787-0.727
				c8.583,0.289,10.786,3.995,11.928,10.183c1.143,6.188,1.304,9.1,5.966,10.33l1.309,27.203c0,0,2.05,0.477,5.096,0.927
				c1.722-4.453,2.568-9.318,2.332-14.372l-1.512-32.274C567.075,138.745,550.36,123.525,530.846,124.438z"/>
			<g>
				<path style="fill-rule:evenodd;clip-rule:evenodd;fill:#050A26;" d="M525.097,203.377c0.214,5.072,4.5,9.011,9.571,8.796
					c5.075-0.214,9.013-4.499,8.799-9.571h-0.017c-0.036-0.871-0.779-1.555-1.652-1.519l-15.167,0.64
					c-0.871,0.036-1.558,0.78-1.52,1.652L525.097,203.377z"/>
				<path style="fill-rule:evenodd;clip-rule:evenodd;fill:#E4414F;" d="M528.82,210.383c1.629,1.205,3.665,1.882,5.848,1.791
					c1.782-0.076,3.425-0.655,4.798-1.592c-0.786-1.855-2.907-3.18-5.396-3.167C531.696,207.427,529.667,208.652,528.82,210.383z"/>
				<path style="fill-rule:evenodd;clip-rule:evenodd;fill:#FFFFFF;" d="M542.001,201.09l-14.255,0.601
					c-0.161,1.586,0.637,3.148,1.713,3.449c1.307,0.367,11.611-0.337,12.307-1.18C542.102,203.553,542.098,202.287,542.001,201.09z"
					/>
			</g>
			<g>
				<path style="fill-rule:evenodd;clip-rule:evenodd;fill:#E8685B;" d="M554.219,193.013c-2.58,0.072-4.612,2.223-4.54,4.8
					c0.071,2.579,2.22,4.613,4.798,4.54c2.58-0.071,4.612-2.221,4.542-4.799C558.945,194.976,556.797,192.941,554.219,193.013z"/>
				<path style="fill-rule:evenodd;clip-rule:evenodd;fill:#E8685B;" d="M514.045,194.131c-2.578,0.071-4.612,2.222-4.54,4.799
					c0.072,2.579,2.22,4.611,4.8,4.541c2.578-0.071,4.612-2.222,4.541-4.801C518.773,196.092,516.623,194.059,514.045,194.131z"/>
			</g>
			<path style="fill-rule:evenodd;clip-rule:evenodd;fill:#050A26;" d="M511.31,177.684c-0.605,0.34-1.375,0.122-1.714-0.483
				c-0.339-0.606-0.123-1.377,0.481-1.715c3.26-1.877,7.713-2.287,11.083-0.474c0.61,0.328,0.841,1.096,0.514,1.707
				c-0.328,0.609-1.098,0.843-1.709,0.515C517.239,175.768,513.935,176.275,511.31,177.684z"/>
			<path style="fill-rule:evenodd;clip-rule:evenodd;fill:#050A26;" d="M556.617,175.564c-2.751-1.159-6.089-1.357-8.665,0.359
				c-0.577,0.383-1.365,0.224-1.748-0.354c-0.385-0.576-0.226-1.363,0.352-1.746c3.185-2.12,7.658-2.129,11.075-0.564
				c0.637,0.28,0.923,1.026,0.643,1.663C557.992,175.556,557.246,175.844,556.617,175.564z"/>
			<g>
				<path style="fill-rule:evenodd;clip-rule:evenodd;fill:#050A26;" d="M552.957,179.988L552.957,179.988
					c1.685-0.08,3.128,1.234,3.207,2.919l0.188,3.997c0.078,1.684-1.235,3.127-2.921,3.206l0,0c-1.686,0.078-3.129-1.234-3.207-2.92
					l-0.188-3.995C549.959,181.509,551.271,180.065,552.957,179.988z"/>
				<path style="fill-rule:evenodd;clip-rule:evenodd;fill:#050A26;" d="M515.361,181.748L515.361,181.748
					c-1.684,0.078-2.998,1.522-2.919,3.207l0.185,3.996c0.08,1.684,1.523,2.999,3.207,2.92h0.002
					c1.685-0.079,2.999-1.521,2.919-3.207l-0.188-3.996C518.491,182.982,517.048,181.669,515.361,181.748z"/>
			</g>
			<path style="fill-rule:evenodd;clip-rule:evenodd;fill:#050A26;" d="M517.582,151.078c-3.821,0.179-11.123,2.335-10.766,9.966
				c0.357,7.63-0.807,13.748-5.675,13.977c0,0,0.125,2.64,0.28,5.984c0.157,3.348-0.012,6.748-3.169,6.896
				c-0.338-7.199-2.663-9.926-2.663-9.926s-0.451-9.63-0.847-18.05c-0.395-8.419,1.443-19.844,12.131-28.123
				c13.829-10.714,33.755-11.647,48.526-2.273c11.415,7.244,14.312,18.447,14.706,26.866c0.396,8.421,0.847,18.051,0.847,18.051
				s-2.063,2.933-1.727,10.131c-3.157,0.147-3.643-3.223-3.8-6.567c-0.157-3.348-0.28-5.987-0.28-5.987
				c-4.866,0.229-6.598-5.755-6.953-13.384c-0.358-7.631-7.831-9.096-11.652-8.916C536.888,150.173,527.235,150.625,517.582,151.078
				z"/>
			<path style="fill-rule:evenodd;clip-rule:evenodd;fill:#050A26;" d="M495.588,177.977c0,0,0.851,18.181,1.258,26.864
				c0.407,8.683,14.733,21.828,24.091,24.555c9.356,2.726,12.552,2.378,14.929,2.267c2.377-0.111,5.59-0.064,14.652-3.652
				c9.06-3.589,22.097-18.016,21.691-26.699c-0.407-8.683-1.26-26.864-1.26-26.864l-5.039-2.652
				c0.231,4.928,1.199,15.872,1.125,22.136c-0.075,6.459-4.904,7.282-11.121,9.264c-4.437,1.415-7.162,14.027-10.782,14.197
				c-3.622,0.169-5.918-1.116-6.948-1.489c-1.028-0.374-3.07-0.289-3.07-0.289s-2.038,0.106-3.031,0.574
				c-0.988,0.469-3.155,1.962-6.775,2.131c-3.62,0.171-7.515-12.131-12.063-13.125c-6.376-1.393-11.26-1.76-11.939-8.184
				c-0.657-6.23-0.718-17.217-0.949-22.144L495.588,177.977z"/>
			<path style="fill-rule:evenodd;clip-rule:evenodd;fill:#212850;" d="M509.938,153.777c-1.909,1.534-3.283,3.853-3.122,7.267
				c0.357,7.63-0.807,13.748-5.675,13.977l0.032,0.677l0.051,1.09l0.118,2.504c0.073,1.563-1.145,2.9-2.707,2.974l0,0
				c-1.563,0.072-2.902-1.145-2.975-2.709l-0.168-3.593l-0.004-0.113l-0.746-15.925c-0.099-2.13-0.056-4.451,0.238-6.866
				c6.435-3.531,14.957,0.717,14.957,0.717V153.777L509.938,153.777z M565.173,172.586l0.004,0.113l0.169,3.593
				c0.072,1.563,1.409,2.781,2.972,2.709l0,0c1.563-0.074,2.781-1.411,2.709-2.974l-0.117-2.504l-0.051-1.09l-0.752-16.039
				c-0.099-2.129-0.358-4.434-0.878-6.812l-0.003-0.002c-6.702-2.898-14.738,2.058-14.825,2.11c2.046,1.351,3.632,3.531,3.793,6.946
				c0.355,7.629,2.087,13.612,6.953,13.384L565.173,172.586z"/>
			<g>
				<path style="fill-rule:evenodd;clip-rule:evenodd;fill:#212850;" d="M518.205,127.422c-5.965,2.644-11.057,6.88-14.757,12.141
					c4.986,3.037,11.599,5.402,20.224,5.645c16.145,0.456,27.713-5.607,34.097-10.193c-1.252-1.27-2.597-2.445-4.025-3.515
					C546.147,134.15,532.207,136.708,518.205,127.422z"/>
				<path style="fill-rule:evenodd;clip-rule:evenodd;fill:#212850;" d="M500.892,137.851c1.591-2.13,3.56-4.172,5.983-6.049
					c2.973-2.304,6.227-4.152,9.651-5.547c16.605,12.163,33.478,6.99,40.127,4.111c1.28,0.892,2.443,1.837,3.498,2.824
					c-5.607,4.578-18.067,12.538-36.479,12.018C513.482,144.921,506.099,141.673,500.892,137.851z"/>
			</g>
			<path style="fill-rule:evenodd;clip-rule:evenodd;fill:#050A26;" d="M566.723,175.439c-1.197-1.257-3.431-2.853-4.768-3.762
				c-0.345-0.25-0.697-0.487-1.063-0.708c-0.014-0.01-0.023-0.016-0.023-0.016v0.001c-2.576-1.555-5.626-2.39-8.859-2.239
				c-4.354,0.204-8.213,2.159-10.928,5.15c-1.32,1.354-2.441,2.821-3.606,4.262c-1.476,1.824-2.438,1.008-3.995,1.081
				c-1.558,0.072-2.438,0.975-4.078-0.704c-1.294-1.325-2.55-2.681-3.987-3.904c-2.984-2.726-7.057-4.308-11.411-4.104
				c-3.233,0.15-6.384,1.276-8.661,3.059v-0.001c0,0,0.038,0.005,0.024,0.016c-0.341,0.254-0.647,0.521-0.968,0.803
				c-1.246,1.031-3.377,2.831-4.451,4.194c-0.528,0.672-1.286,1.152-2.061,1.497l0.286,6.12c0.387,0.985,0.868,2.784,1.512,4.639
				c0.267,0.883,0.631,1.729,1.042,2.536c0.387,0.805,0.828,1.546,1.32,2.146l0.006-0.004c3.014,4.132,7.979,6.719,13.47,6.461
				c6.376-0.297,11.686-4.349,13.902-9.916c0.004-0.006,0.008-0.01,0.012-0.016c0.011-0.021,0.023-0.041,0.033-0.063
				c1.04-1.971,1.933-7.273,2.406-8.134c0.479-0.867,1.774-0.992,1.774-0.992s1.302,0.003,1.858,0.822
				c0.554,0.812,1.937,6.009,3.156,7.872c0.014,0.021,0.026,0.04,0.04,0.059c0.003,0.007,0.007,0.011,0.013,0.016
				c2.727,5.336,8.39,8.874,14.766,8.575c5.492-0.258,10.191-3.298,12.806-7.692l0.002,0.004c0.434-0.646,0.798-1.424,1.106-2.26
				c0.333-0.844,0.599-1.72,0.784-2.624c0.43-1.759,0.71-3.457,0.974-4.509l-0.3-6.382
				C568.073,176.453,567.301,176.048,566.723,175.439L566.723,175.439z M515.424,199.823L515.424,199.823
				c-7.507,0.352-13.877-5.45-14.229-12.957c-0.353-7.509,5.45-13.88,12.957-14.23c7.509-0.352,13.879,5.448,14.229,12.957
				C528.733,193.1,522.933,199.471,515.424,199.823L515.424,199.823z M553.384,198.045L553.384,198.045
				c-7.51,0.352-13.88-5.449-14.232-12.957c-0.35-7.508,5.45-13.878,12.959-14.23c7.507-0.353,13.879,5.45,14.229,12.958
				C566.692,191.321,560.893,197.692,553.384,198.045z"/>
			<path style="fill-rule:evenodd;clip-rule:evenodd;fill:#F8CAB0;" d="M532.194,192.069c0,0-1.745,4.306-1.908,5.615
				c-0.162,1.309,1.126,1.966,3.734,1.425C536.631,198.568,533.867,189.418,532.194,192.069z"/>
		</g>



		<!-- right mug -->
		<g transform="translate(-150,0)">
			<path style="fill-rule:evenodd;clip-rule:evenodd;fill:#BD1449;" d="M633.039,387.733c2.856,0,5.573,1.125,7.592,3.145
				c2.02,2.02,3.145,4.734,3.145,7.591c0,2.856-1.125,5.57-3.145,7.59c-2.019,2.02-4.735,3.147-7.592,3.147
				c-2.854,0-5.571-1.127-7.591-3.147c-2.018-2.02-3.143-4.733-3.143-7.59c0-2.857,1.125-5.571,3.143-7.591
				C627.468,388.858,630.185,387.733,633.039,387.733L633.039,387.733z M637.669,393.841c-1.231-1.233-2.885-1.917-4.63-1.917
				c-1.741,0-3.395,0.684-4.628,1.917c-1.231,1.232-1.917,2.885-1.917,4.628c0,1.742,0.686,3.396,1.917,4.627
				c1.233,1.233,2.887,1.919,4.628,1.919c1.745,0,3.398-0.685,4.63-1.919c1.232-1.23,1.917-2.885,1.917-4.627
				C639.586,396.726,638.901,395.072,637.669,393.841z"/>
			<path style="fill-rule:evenodd;clip-rule:evenodd;fill:#E62952;" d="M615.945,419.493h0.002c9.261,0,16.838-7.573,16.838-16.839
				v-0.939V386.36v-1.256c0-0.82-0.671-1.489-1.491-1.489h-30.696c-0.82,0-1.49,0.669-1.49,1.489v1.256v15.354v0.939
				C599.107,411.92,606.685,419.493,615.945,419.493z"/>
			<path style="fill-rule:evenodd;clip-rule:evenodd;fill:#BD1449;" d="M627.019,400.55c0,1.798-0.284,3.533-0.813,5.16
				c-0.299,0.921-0.674,1.808-1.119,2.65c-1.83,3.467-4.83,6.227-8.469,7.743c-1.985,0.828-4.16,1.287-6.438,1.287
				c-0.939,0-1.861-0.08-2.76-0.229c2.504,1.482,5.42,2.332,8.526,2.332c3.782,0,7.283-1.264,10.104-3.39
				c1.836-1.384,3.382-3.135,4.529-5.143c0.464-0.813,0.862-1.667,1.189-2.558c0.656-1.795,1.016-3.731,1.016-5.749v-0.939v-9.732
				v-2.681v-2.941v-1.256c0-0.82-0.671-1.489-1.491-1.489h-4.274v0.641v6.404v3.237v5.713V400.55z"/>
			<path style="fill-rule:evenodd;clip-rule:evenodd;fill:#E62952;" d="M601.352,419.493h29.188c1.235,0,2.245-1.008,2.245-2.245
				l0,0c0-1.235-1.01-2.245-2.245-2.245h-29.188c-1.234,0-2.244,1.01-2.244,2.245l0,0
				C599.107,418.485,600.117,419.493,601.352,419.493z"/>
			<path style="fill-rule:evenodd;clip-rule:evenodd;fill:#E85979;" d="M604.5,386.816h0.002c1.56,0,2.836,1.275,2.836,2.836v10.159
				c0,1.559-1.275,2.836-2.836,2.836H604.5c-1.559,0-2.836-1.277-2.836-2.836v-10.159
				C601.664,388.092,602.941,386.816,604.5,386.816z"/>
			<path style="fill-rule:evenodd;clip-rule:evenodd;fill:#FFFFFF;" d="M601.563,362.853h12.838c0.974,0,1.77-0.796,1.77-1.77l0,0
				c0-0.974-0.796-1.771-1.77-1.771h-17.268c-2.543,0-4.622-2.08-4.622-4.622l0,0c0-2.543,2.079-4.622,4.622-4.622h44.905
				c2.542,0,4.62,2.079,4.62,4.622l0,0c0,2.542-2.078,4.622-4.62,4.622h-15.664c-0.974,0-1.77,0.797-1.77,1.771l0,0
				c0,0.974,0.796,1.77,1.77,1.77h6.027c1.963,0,3.567,1.607,3.567,3.566l0,0c0,1.963-1.604,3.569-3.567,3.569h-9.968
				c-3.9,0-7.092,3.189-7.092,7.092v3.251c0,0.922-0.754,1.674-1.675,1.674l0,0c-0.92,0-1.674-0.752-1.674-1.674v-6.185
				c0-2.287-1.872-4.158-4.158-4.158h-6.272c-1.962,0-3.566-1.607-3.566-3.569l0,0C597.997,364.459,599.602,362.853,601.563,362.853
				z"/>
		</g>
	</g>
</g>

</svg>
