<svg xmlns="http://www.w3.org/2000/svg" width="1024pt" height="1024pt" viewBox="0 0 1024 1024" version="1.1" class="iconadda">
<g id="surface455218">
<g id="Next_JS_vector-0"><path style=" stroke:none;fill-rule:nonzero;fill:rgb(0%,0%,0%);fill-opacity:1;" d="M 478.503906 0.800781 C 476.304688 1 469.304688 1.699219 463.003906 2.199219 C 317.71875 15.296875 181.632812 93.691406 95.441406 214.179688 C 47.445312 281.171875 16.75 357.164062 5.148438 437.65625 C 1.050781 465.753906 0.550781 474.050781 0.550781 512.148438 C 0.550781 550.246094 1.050781 558.542969 5.148438 586.640625 C 32.945312 778.722656 169.632812 940.105469 355.015625 999.898438 C 388.210938 1010.597656 423.207031 1017.898438 463.003906 1022.296875 C 478.503906 1023.996094 545.496094 1023.996094 560.996094 1022.296875 C 629.6875 1014.699219 687.882812 997.699219 745.277344 968.402344 C 754.078125 963.902344 755.777344 962.703125 754.578125 961.703125 C 753.777344 961.101562 716.28125 910.808594 671.285156 850.015625 L 589.492188 739.527344 L 487.003906 587.84375 C 430.609375 504.453125 384.214844 436.257812 383.8125 436.257812 C 383.414062 436.15625 383.011719 503.550781 382.8125 585.84375 C 382.511719 729.929688 382.414062 735.730469 380.613281 739.128906 C 378.011719 744.027344 376.015625 746.027344 371.8125 748.226562 C 368.613281 749.828125 365.8125 750.125 350.714844 750.125 L 333.417969 750.125 L 328.820312 747.226562 C 325.820312 745.328125 323.621094 742.828125 322.121094 739.925781 L 320.019531 735.425781 L 320.21875 534.945312 L 320.519531 334.363281 L 323.621094 330.464844 C 325.222656 328.363281 328.621094 325.664062 331.019531 324.367188 C 335.117188 322.367188 336.71875 322.167969 354.015625 322.167969 C 374.414062 322.167969 377.8125 322.96875 383.113281 328.765625 C 384.613281 330.367188 440.109375 413.957031 506.5 514.648438 C 572.894531 615.339844 663.683594 752.824219 708.28125 820.320312 L 789.273438 943.007812 L 793.371094 940.308594 C 829.667969 916.710938 868.0625 883.113281 898.460938 848.117188 C 963.15625 773.824219 1004.851562 683.234375 1018.847656 586.644531 C 1022.945312 558.546875 1023.445312 550.25 1023.445312 512.152344 C 1023.445312 474.054688 1022.945312 465.757812 1018.847656 437.660156 C 991.050781 245.578125 854.363281 84.195312 668.980469 24.402344 C 636.285156 13.804688 601.488281 6.503906 562.492188 2.105469 C 552.894531 1.105469 486.800781 0.00390625 478.5 0.804688 Z M 687.882812 310.171875 C 692.683594 312.570312 696.582031 317.171875 697.980469 321.972656 C 698.78125 324.574219 698.980469 380.167969 698.78125 505.453125 L 698.480469 685.234375 L 666.785156 636.640625 L 634.988281 588.046875 L 634.988281 457.359375 C 634.988281 372.867188 635.386719 325.371094 635.988281 323.074219 C 637.589844 317.476562 641.085938 313.074219 645.886719 310.476562 C 649.984375 308.375 651.484375 308.175781 667.183594 308.175781 C 681.980469 308.175781 684.582031 308.375 687.882812 310.175781 Z M 687.882812 310.171875 " />
</g><g id="Next_JS_vector-1"><path style=" stroke:none;fill-rule:nonzero;fill:rgb(0%,0%,0%);fill-opacity:1;" d="M 784.273438 945.207031 C 780.773438 947.40625 779.675781 948.90625 782.773438 947.207031 C 784.972656 945.90625 788.574219 943.207031 787.972656 943.109375 C 787.671875 943.109375 785.972656 944.109375 784.273438 945.210938 Z M 777.375 949.707031 C 775.574219 951.105469 775.574219 951.207031 777.773438 950.105469 C 778.972656 949.503906 779.972656 948.804688 779.972656 948.605469 C 779.972656 947.804688 779.472656 948.003906 777.371094 949.707031 Z M 772.375 952.707031 C 770.574219 954.105469 770.574219 954.207031 772.773438 953.105469 C 773.972656 952.503906 774.972656 951.804688 774.972656 951.605469 C 774.972656 950.804688 774.472656 951.003906 772.371094 952.707031 Z M 767.375 955.707031 C 765.574219 957.105469 765.574219 957.207031 767.773438 956.105469 C 768.972656 955.503906 769.972656 954.804688 769.972656 954.605469 C 769.972656 953.804688 769.472656 954.003906 767.371094 955.707031 Z M 759.777344 959.707031 C 755.976562 961.707031 756.175781 962.507812 759.976562 960.605469 C 761.675781 959.707031 762.976562 958.804688 762.976562 958.605469 C 762.976562 957.90625 762.875 958.003906 759.777344 959.707031 Z M 759.777344 959.707031 " />
</g></g>
</svg>